<?xml version="1.0" encoding="utf-8"?>
<!-- Generator: Adobe Illustrator 21.0.0, SVG Export Plug-In . SVG Version: 6.00 Build 0)  -->
<svg version="1.1" id="Ñëîé_1" xmlns="http://www.w3.org/2000/svg" xmlns:xlink="http://www.w3.org/1999/xlink" x="0px" y="0px"
	 viewBox="0 0 365 167" style="enable-background:new 0 0 365 167;" xml:space="preserve">
<g>
	<g>
		<g>
			<g>
				<path d="M141.2,88.7c-0.3,1-0.5,2.1-0.8,3.1c-0.1,0.5-0.2,1.1-0.5,1.5c-1.5,2.7-2.5,5.7-4.3,8.2c-2.1,2.9-3.7,6.1-6.5,8.5
					c-0.5,0.5-0.9,1-1.2,1.7c-1,2.1-2.4,4-4.4,5.4c-2.8,2.1-4.3,5.1-5.3,8.3c-0.5,1.6-1.1,3.1-2,4.5c-0.6,0.9-1.1,1.8-1.6,2.7
					c-0.5,0.9-1.1,1.6-2.1,1.9c-1,0.3-1.8,0.9-2.4,1.6c-0.9,1.1-2,1.8-3.3,2.4c-0.5,0.2-1,0.5-1.4,0.8c-1.3,1.1-2.7,1.6-4.3,1.8
					c-1.3,0.2-2.7,0.5-4,0.9c-1.3,0.4-2.7,0.2-4,0.1c-0.7,0-1.3-0.6-1.7-1.1c-0.5-0.5-1-0.6-1.6-0.5c-1.5,0.2-3,0.1-4.5-0.4
					c-1.5-0.5-3.2-0.8-4.9-0.5c-1.4,0.3-2.8,0.1-3.9-1.1c-0.8-0.9-4-1.9-5.2-1.8c-1.7,0-3.3,0.3-4.8,1.1c-1.3,0.6-2.6,0.6-4,0
					c-1-0.4-1.9-0.9-2.8-1.5c-3-2-6-4.1-9.3-5.7c-0.7-0.4-1.4-0.9-2.1-1.3c-0.7-0.4-1.4-0.9-2.2-1.1c-3.1-0.9-5.6-2.7-7.6-5.2
					c-0.5-0.6-1-1.1-1.5-1.7c-0.9-0.9-1.7-1.8-2.2-2.9c-1.4-2.9-3.3-5.4-5.3-7.9c-0.5-0.6-1.1-1.3-1.3-2.1c-0.5-2-1.9-3.4-3.5-4.6
					c-1.4-1.1-3-2.1-4.3-3.3c-1.4-1.3-2.4-2.7-3-4.4c-0.5-1.4-0.9-2.7-1.1-4.2c-0.2-0.8-0.3-1.6-0.1-2.5c0.2-1.2-0.1-2.4-0.2-3.6
					c0-0.4-0.2-0.7-0.5-1c-1-1-1-2.1-0.6-3.3c0.7-1.8,1.3-3.7,1.2-5.7c0-0.5,0.2-1,0.2-1.6c0.1-1,0.3-1.9,0.1-2.9
					c-0.1-0.3-0.1-0.6-0.1-0.9c0.2-3.2,0.9-6.3,2.1-9.2c0.1-0.3,0.4-0.7,0.6-1c1.6-1.9,3.1-3.9,4.8-5.8c0.6-0.7,1.2-1.4,1.5-2.3
					c0.6-2.1,2.1-3.5,3.5-5c2.2-2.3,4.7-4.3,7.6-5.7c1.4-0.7,2.5-1.6,3.8-2.4c2.4-1.4,4.8-2.6,7.3-3.6c0.9-0.4,1.8-0.9,2.8-0.6
					c0.5,0.1,1-0.2,1.5-0.4c1.3-0.5,2.6-1.2,4-1.5c1.3-0.4,2.4-1.3,3.1-2.5c0.6-1.2,1.5-2,2.6-2.7c1.8-1.1,3-2.7,4.2-4.4
					c0.7-1,1.4-2,2.3-2.8c0.7-0.7,1.3-1.5,1.9-2.3c1.2-1.8,2.4-3.5,4.4-4.5c0.6-0.3,1-0.9,1.5-1.4c1-1.1,1.9-2.4,3.3-3.1
					c2.4-1.3,4.8-2.7,7.6-2.8c1.5-0.1,2.7-0.9,3.9-1.7c0.4-0.3,0.7-0.6,1-0.9c1.5-1.8,3.5-2.3,5.6-2.5c2.1-0.2,4.2-0.3,6.3-0.8
					c1.8-0.5,3.7-0.3,5.6-0.1c4.2,0.5,8,2.4,11.8,4c1.2,0.5,2.1,1.5,3,2.4c0.7,0.7,1.3,1.4,2,2.2c0.4,0.4,0.7,0.8,0.6,1.4
					c-0.1,0.7,0.3,1.2,0.8,1.5c1.1,0.6,1.7,1.7,2.1,2.8c0.4,1.1,0.9,2.3,1.3,3.4c0.4,1.1,1.1,2,2.2,2.4c1.1,0.4,1.7,1.2,2.4,2
					c2.1,2.5,3.8,5.3,5.2,8.3c0.7,1.5,1.3,3.1,1,4.8c-0.1,0.5,0.1,1,0.2,1.6c0.8,2.4,0.9,4.9,0,7.4c-0.5,1.3-0.9,2.6-1,4
					c-0.2,1.4-0.2,2.7,0.4,4c0.4,1,0.7,2,0.7,3.1c0,0.6,0.2,1.2,0.6,1.7c1.6,2.1,1.9,4.5,1.5,7.1c-0.2,1.3-0.3,2.7-0.5,4.1
					c-0.2,1.2-0.2,2.4,0.2,3.6c0.4,1.5,0.5,3,0.4,4.5c-0.1,1.4-0.1,2.8,0.2,4.1c0.2,1,0.1,1.8-0.3,2.6c-0.5,1.1-1,2.2-1.5,3.3
					C142.1,87.2,141.6,87.9,141.2,88.7c0,0.1,0,0.1,0,0.1L141.2,88.7z M135.1,67.9c0.1,0.1-0.2,0.4,0.2,0.4
					C135.2,68.2,135.1,68,135.1,67.9l0.1,0L135.1,67.9z M118,109.2c-0.1,0.4-0.1,0.9,0.4,1.2c-0.7,0.2-0.7,0.8-0.7,1.3
					c0,1.1,0,2.3,0,3.4c0,1.8,0.3,3.6,0.8,5.4c0.1,0.3,0.2,0.6,0.5,0.6c0.2,0,0.4-0.2,0.5-0.4c0.9-1.4,1.8-2.8,2.9-4.1
					c0.3-0.4,0.4-0.8,0.3-1.3c-0.2-0.7-0.2-1.3-0.3-2c-0.2-1.8,0-3.6,0.2-5.4c0.2-1.6,0-3.1-0.7-4.6c-1.6,0.9-1.7,1-1.9,2.1
					c-0.3,1.9-0.6,3.7-0.6,5.6c0,1.4,0,2.9-0.1,4.3c0,0.3,0.1,0.7-0.4,0.9c-0.6-2-0.6-3.9-0.7-5.9C118.1,110,118,109.7,118,109.2
					C117.9,109.3,118,109.2,118,109.2C118,109.2,118,109.2,118,109.2C118,109.3,118,109.3,118,109.2z M109,123.9
					c-0.5,0.5-0.3,0.9,0.1,1.4c-0.3,0.2-0.4,0.5-0.4,0.8c0,2.1,0.4,4.1,0.8,6.1c0.4,1.7,1.1,1.9,2.6,1.2c0.5-0.3,0.8-0.6,1.1-1.1
					c1-1.5,1.4-3.1,1.8-4.8c0.5-2.1,0.4-4.2-0.5-6.2c-0.8-1.8-1.1-3.8-0.8-5.8c0.1-0.7,0.2-1.5,0.2-2.3c0-0.5,0.6-1.3-0.2-1.6
					c-0.4-0.2-0.7,0.6-1.1,1c-0.4,0.4-0.7,0.8-0.9,1.3c-0.2,0.6-0.5,1.1-1,1.4c-1,0.5-1.1,1.4-1,2.3c0.1,3.1,0.1,6.2,0.6,9.3
					c0.2,1,0.2,1.9,0.4,3.3c-0.8-1-1-1.9-1.2-2.7c-0.2-0.7-0.4-1.5-0.6-2.2C109.1,124.8,109.1,124.3,109,123.9
					c0-0.1-0.1-0.1-0.2-0.1c0,0,0-0.1-0.1-0.2C109,123.7,109,123.7,109,123.9z M116.7,109.2c-1,0.5-1.2,0.8-0.7,2.1
					c-0.3,0.1-0.4,0.4-0.4,0.7c-0.1,0.8-0.2,1.6-0.2,2.5c-0.1,1.7-0.2,3.3,0.3,4.9c0.4,1.3,0.9,2.6,1.4,3.8c0.1,0.2,0.2,0.6,0.6,0.5
					c1-1.5,1-1.5,0.1-2.8c-0.4-0.6-0.7-1.2-0.8-1.9c-0.3-1.5-0.5-3-0.7-4.5c-0.1-1.1,0.2-2.3-0.3-3.3c0.4-0.2,0.4-0.6,0.5-0.9
					C116.5,110,116.6,109.6,116.7,109.2c0-0.1,0-0.1-0.1-0.1C116.7,109.1,116.7,109.2,116.7,109.2z M76,123.2
					c-0.4,0.2-0.8,0.3-1.2,0.5c-0.2,0.1-0.2,0.4-0.1,0.6c0.1,0.1,0.2,0.2,0.3,0.3c0.2,0.1,0.4,0,0.5-0.2
					C75.7,123.9,75.9,123.5,76,123.2c0.3,0.9,1,1.8,1.5,2.7c0,0.1,0.1,0.1,0.2,0.1c0.1,0,0.1-0.1,0.2-0.1c0.1-0.8-0.1-1.6-0.3-2.4
					c-0.1-0.4-0.4-0.4-0.7-0.4C76.6,123.1,76.3,123.1,76,123.2z M81.1,138.2c0.4,0,0.9,0,1.3-0.1c0.3-0.1,0.6-0.2,0.5-0.6
					c-0.2-0.5-0.3-1-0.6-1.5c-0.4-0.8-0.7-1.6-1.5-2.5C81,135.3,81.1,136.8,81.1,138.2c-0.3-1.2-0.7-2.4-1-3.6
					c-0.5-2-1.2-3.9-2.6-5.9c0.4,1.4,0.8,2.3,1.1,3.3c0.5,1.7,0.9,3.5,1.1,5.3c0,0.7,0.4,0.9,1.1,0.8C80.9,138,81,138.2,81.1,138.2z
					 M21.4,99.4c-0.1-0.4-0.2-0.9-0.3-1.3c0-0.1-0.2-0.2-0.3-0.2c-0.2,0-0.2,0.2-0.1,0.4C20.9,98.6,21.2,99,21.4,99.4
					c1.2,0.8,2.5,1.7,3.7,2.5c1.6,1,2.7,2.3,3.7,3.9c0.4,0.7,0.6,1.4,0.9,2.1c0.5,1.2,1,2.4,2.3,3.3c0.3-0.9,0-1.6-0.3-2.3
					c-0.7-2-1.5-4-2.2-5.9c-0.2-0.4-0.3-0.8-0.5-1.3c-0.5-1.2-1.1-2.2-2.6-2c-0.2,0-0.5,0-0.7-0.1c-1-0.6-2.2-0.2-3.3-0.6
					C22,98.8,21.7,99.2,21.4,99.4z M135.3,76.4c-0.2,0.7-0.4,1.4-0.7,2.1c-0.2,0.6-0.5,1.3-1.1,1.7c-1,0.6-1.6,1.5-1.9,2.7
					c-0.1,0.5-0.5,0.9-0.8,1.3c0.1-1,0.2-2,0.1-2.9c0-0.8,0.1-1.5,0.5-2.2c1-1.9,1.3-4,1.3-6.2c0-0.8,0-1.5-0.1-2.3
					c-0.1-1.2,0.1-2.4,0.7-3.5c0.1-0.3,0.3-0.6,0.4-0.8c0.5-1,0.6-2-0.2-3c-0.6-0.8-0.6-1.7-0.5-2.6c0.1-0.7,0.2-1.3,0.4-2
					c0.3-1.6,0.9-3.2,1-4.9c0.1-1.4,0.4-2.9,0.6-4.3c0.2-1.1,0.3-2.3,0.8-3.3c0.8-1.8,0.7-3.7,0.4-5.6c-0.5-3-1.2-5.9-1.1-9
					c0-0.3,0-0.6-0.1-0.9c-0.5-1.5-0.6-3-0.5-4.5c0.1-2.3-1.1-3.9-2.8-5.1c-1.1-0.8-1.7-1.5-1.9-2.9c-0.3-2.4-1-4.7-3.1-6.4
					c-0.4-0.3-0.6-0.8-1-1.3c-1.6-2-3.4-3.6-5.8-4.5c-2-0.7-4-1.6-6-2.2c-2.3-0.7-4.7-1.2-7.1-1.2c-2.3,0-4.5,0.3-6.8,0.4
					c-1.1,0.1-2.3,0.2-3.4,0.3c-0.8,0.1-1.7,0.2-2.3,0.9c-1.1,1.3-2.6,2.1-3.9,3.1c-0.8,0.6-1.7,1-2.7,1.1c-1.7,0.2-3.2,0.8-4.7,1.6
					c-1.4,0.8-2.6,1.8-4,2.7c-2.9,1.9-5.3,4.3-7.2,7.1c-0.5,0.7-0.9,1.4-1.5,2c-1.7,1.6-3.2,3.5-4.8,5.1c-0.9,0.9-1.8,1.8-3.1,2.3
					c-0.8,0.3-1.2,0.8-1.7,1.5c-0.3,0.4-0.5,0.9-0.8,1.3c-0.8,1.2-1.9,2.2-3.3,2.6c-1.1,0.4-2.2,1-3.3,1.4c-0.6,0.3-1.2,0.6-1.9,0.7
					c-1.4,0.2-2.6,0.8-3.8,1.4c-2.4,1.2-4.7,2.4-7,3.8c-2.9,1.8-5.9,3.5-8.5,5.6c-1.8,1.5-3.7,3-5,4.9c-1.1,1.6-2.3,3-3.8,4.2
					c-0.4,0.3-0.8,0.7-1,1.2c-0.6,1.4-1.4,2.7-2.2,4c-1.8,3.1-2.8,6.5-2.3,10c0.6,3.7,0.7,7.2-0.4,10.8c-0.2,0.7-0.3,1.5,0,2.2
					c0.3,0.6,0.3,1.3,0.2,2c-0.2,1.2-0.3,2.4-0.5,3.6c-0.1,1.1,0.1,2.1,0.7,3c0.5,0.7,1,1.4,1.6,1.9c0.9,0.9,2.1,1.4,3,2.3
					c0.2,0.2,0.6,0.2,0.9,0.2c0.9,0.1,1.8,0.1,2.7-0.1c0.9-0.2,1.9-0.3,2.9-0.4c1.2-0.2,2.2,0.2,3.2,1c1.2,1,2.6,1.9,4.1,2.4
					c0.7,0.2,1.4,0.7,2,1.1c2.4,1.6,4.6,3.4,6.8,5.3c1.9,1.6,3.5,3.3,4.7,5.5c0.7,1.3,1.8,2.3,3,3c1.1,0.7,2.2,1.4,3.3,2.1
					c1.8,1.1,3.8,1.9,6,2c1.6,0,3.2,0.2,4.8,0.3c1.3,0.1,2.6,0.2,3.8,0.8c1.9,1,3.8,0.8,5.7,0.2c1.3-0.4,2.7-0.7,4-0.7
					c2.9-0.1,5.9-0.2,8.8,0.3c1.7,0.3,3.3,0.5,4.8,1.3c1.6,0.9,3.2,1.1,5,0.3c0.2-0.1,0.4-0.1,0.7-0.1c1.2,0,2-0.7,2.5-1.7
					c0.2-0.3,0.4-0.6,0.6-1c0.6-1.1,1.5-1.9,2.6-2.4c2.1-1.1,4-2.5,5.4-4.4c1.4-2,3-4,4.4-6c1.4-2,3.1-3.8,4.8-5.5
					c0.7-0.7,1.3-1.4,1.3-2.5c0-1.2,0.7-2.1,1.6-2.9c0.1-0.1,0.4-0.3,0.6-0.2c0.2,0.1,0.2,0.4,0,0.5c-0.4,0.4-0.6,0.9-0.5,1.4
					c0.2,2.3,0.2,4.5,0.9,6.7c0.6,2.1,0.8,4.2,0.5,6.3c-0.1,1-0.2,1.9-0.5,2.9c-0.1,0.4-0.2,0.9,0,1.3c0,0.1,0.3,0.2,0.4,0.1
					c0.2-0.1,0.4-0.2,0.5-0.4c1.4-2,1.9-4.5,3.4-6.4c0.1-0.1,0-0.3,0-0.4c0.5-0.1,0.8-0.4,1-0.8c1.6-2.2,3.1-4.4,4.7-6.7
					c0.2-0.3,0.4-0.7,0.5-1c0.2-0.4,0.2-0.7-0.2-1c-0.6-0.6-1.2-1.2-1.3-2.1c-0.4-3.5-0.6-6.9,1.1-10.2c1.3-2.5,1.6-5.2,1.8-7.9
					C135.7,77.4,135.5,77,135.3,76.4L135.3,76.4L135.3,76.4z M135.7,58.6c-0.3,0-0.6,0-0.7,0.4c-0.4,1.3-0.4,2.5,0,3.8
					c0.3,1,0.7,2,1.1,3c0.6,1.6,1.2,3.3,2.1,4.8c0.5,0.8,0.7,1.6,0.7,2.5c0,2.4-0.2,4.7-0.7,7c-0.4,2.2-0.8,4.3-0.7,6.5
					c0,0.7,0,1.4,0.6,1.9c0.1,0,0.2,0,0.2-0.1c1.5-2.1,2.9-4.3,3.8-6.7c0.9-2.5,1.4-5.1,0.4-7.7c-0.3-0.7-0.3-1.5-0.4-2.2
					c-0.4-2.7-0.5-5.4-0.5-8.2c0-2.1-0.5-4.1-1.6-5.8c-0.8-1.2-1-2.5-1-3.9c0-1.1,0.1-2.1,0-3.2c-0.1-1.7,0.3-3.3,1-4.9
					c0.8-1.9,1-4,1.1-6c0-0.8,0-1.5-0.3-2.2c-0.7-1.8-1.2-3.7-2.2-5.5c-0.8-1.4-1.4-2.8-2.2-4.2c-0.1-0.1-0.2-0.2-0.3-0.2
					c-0.3,0-0.3,0.3-0.3,0.5c0.1,0.4,0.2,0.7,0.4,1.1c0.4,1,1,2,1.1,3.2c0.2,2.3,0.7,4.6,1.1,7c0.2,1.3,0.1,2.5-0.2,3.8
					c-0.4,1.7-1,3.3-1.6,5c-0.8,1.9-1,3.9-1,6c0.6-0.1,0.6-0.6,0.7-0.9c0.2-0.4,0.3-0.9,0.5-1.3c0.1-0.3,0.1-0.8,0.7-0.7
					c0,0.2,0,0.5,0,0.7c-0.9,3.6-0.7,7.2-0.1,10.8c0.2,1,0.4,1.9,0.7,3.3C136.2,63.6,135.6,61.2,135.7,58.6
					c-0.1-0.2-0.2-0.3-0.4-0.4C135.5,58.3,135.6,58.4,135.7,58.6z M107.3,126c-0.3,0.5,0,1.2-0.7,1.6c-0.7-2.2-0.7-4.4-0.7-6.6
					c0-0.7,0.1-1.4,0.1-2c0-0.1-0.1-0.3-0.3-0.3c-0.1,0-0.3,0.1-0.3,0.2c-0.1,2.1-0.6,4.2-0.4,6.3c0.1,1,0.2,2.1,0.3,3.2
					c0,0.4,0.2,0.8-0.2,1.3c-0.8-2.5-1.5-4.9-1.1-7.5c0.1-0.7,0.1-1.4,0.1-2c0-0.1-0.1-0.3-0.2-0.4c-0.1-0.1-0.3,0-0.4,0
					c-0.4,0.4-0.7,0.8-1,1.2c-1,1.2-2.1,2.2-3.6,2.7c-0.7,0.2-1.1,0.7-1.6,1.2c-1.5,1.3-3.3,1.5-5,0.5c-1.8-1-3.6-1.9-5.1-3.3
					c-0.4-0.4-0.9-0.5-1.5-0.4c-0.1,0-0.2,0-0.2,0.1c0,0.1-0.1,0.3,0,0.4c0.3,0.3,0.6,0.6,1,0.9c0.6,0.5,1.1,1.1,1.4,1.8
					c0.1,0.2,0.1,0.5-0.1,0.6c-0.2,0.1-0.4,0.2-0.6,0.1c-0.1,0-0.1-0.1-0.2-0.1c-0.4-0.3-0.7-1.1-1.2-0.9c-0.8,0.3-0.1,1.1-0.2,1.6
					c-0.1,0.4,0.1,0.9-0.2,1.3c-0.1,0.2-0.3,0.3-0.6,0.1c-0.1-0.1-0.3-0.2-0.3-0.3c-0.9-1.3-1.8-2.6-2.6-3.9c-0.1-0.1,0-0.3,0.1-0.4
					c0.2,0.1,0.4,0.3,0.5,0.3c0.2,0.1,0.4,0.1,0.5-0.2c0-0.1,0-0.2,0-0.2c-0.2-0.1-0.4-0.3-0.6-0.2c-0.2,0-0.4,0.2-0.5,0.4
					c-0.9-0.2-1.8-0.3-2.6,0c-0.2,0.7,0.1,1.3,0.2,1.8c0.1,0.6,0.3,1.2,0.5,1.7c0.9,2.4,1.7,4.8,2.6,7.3c0.7,1.9,1.8,3.5,3.2,4.9
					c0.6,0.6,1.4,0.9,2.3,0.9c0.5,0,0.9,0,1.4-0.1c1.4-0.2,2.6,0.1,3.5,1.2c0.6,0.6,1.3,0.8,2.1,0.7c0.4,0,0.8-0.1,1.1,0
					c0.8,0.3,1.5,0,2.1-0.4c2.4-1.3,5.1-2,7.1-3.8c0.2-0.1,0.4-0.2,0.6-0.3c1.2-0.4,2-1.3,3-2.1c0.6-0.4,0.7-1,0.4-1.6
					c-0.6-1.4-0.9-2.9-1.2-4.4C107.8,127.9,107.5,126.9,107.3,126l0-0.2L107.3,126z M37.2,108.4c0.6,1.7,1.3,3.4,1.9,5.1
					c1.1,3.3,1.9,6.7,3.6,9.8c0.4,0.8,0.8,1.3,1.6,1.8c4.2,2.4,8.3,4.9,12.5,7.4c1.9,1.1,3.8,2.3,5.6,3.5c1.4,0.9,2.7,1.2,4.3,0.6
					c1.1-0.4,2.4-0.5,3.6-0.5c0.5,0,1.1,0.1,1.6,0c1.1-0.4,2.1-0.1,3,0.5c0.2,0.1,0.4,0.1,0.7-0.1c0-0.2,0.1-0.5,0.1-0.8
					c-0.4-2.2-0.8-4.5-1.9-6.5c-0.7-1.4-1.6-2.6-2.3-3.9c-0.7-1.2-1.7-1.9-3-2.3c-1.4-0.4-2.9-0.9-4.4-0.9c-0.8,0-1.5-0.1-2.2-0.5
					c-1.7-1-3.7-1.4-5.6-1.8c-1.6-0.4-3-1-4.2-2.1c-0.9-0.8-1.9-1.6-2.8-2.3c-0.5-0.4-0.9-0.8-1.2-1.3c-0.9-1.6-2.1-3-3.6-4
					c-0.8-0.5-1.5-1.3-2.2-2c-1-0.9-1.9-1.7-3-2.4c-1-0.6-2-1.2-2.8-1.9c-0.7-0.6-1.6-0.8-2.5-1c-0.6-0.1-0.9,0.2-0.7,0.7
					c0.6,1.8,1.2,3.6,1.8,5.4c0.8,2.4,1.6,4.9,2.5,7.3c0.7,2,1.5,4,2.9,5.6c0.2,0.2,0.3,0.5,0.7,0.1C39.4,117.5,38,113.1,37.2,108.4
					z M35.4,114.9c-0.9-4.5-2.6-8.7-3.6-13c-0.2-0.8-0.8-1.3-1.5-1.6c-0.1-0.1-0.3-0.1-0.4,0c-0.2,0.1-0.3,0.4-0.2,0.6
					c0.6,1.4,1.2,2.8,1.7,4.2c0.9,2.5,1.6,5,2.4,7.6C34,113.6,34.3,114.4,35.4,114.9z M78.6,138.1c0.1-1.2-0.4-2.4-0.7-3.5
					c-0.9-3.5-2.2-6.7-4.2-9.7c-0.2-0.2-0.4-0.5-0.6-0.6c-0.1-0.1-0.4,0-0.6,0.1c-0.1,0-0.1,0.3,0,0.4c0.1,0.3,0.3,0.5,0.5,0.8
					c2.3,3.2,3.8,6.6,3.4,10.7c0,0.5,0.1,0.9,0.6,1.2C77.4,137.7,77.9,138.2,78.6,138.1z M134.1,96.7c0.2,0.4,0.5,0.6,0.7,0.5
					c0.9-0.6,1.4-2,0.9-2.9c-0.9-1.8-1.4-3.7-1.4-5.6c0-0.2-0.1-0.4-0.4-0.4c-0.1,0-0.2,0.2-0.3,0.3c-0.3,1.8-0.3,3.6-0.2,5.4
					C133.6,94.9,133.7,95.9,134.1,96.7z M136.4,70c0.1,2.1,0,3.9,1,5.7C138.4,72.8,138.3,72.1,136.4,70z M136.2,91
					c0.2,0.7,0.3,1.3,0.5,1.9c0.1,0.2,0.3,0.4,0.5,0.2c0.2-0.1,0.3-0.3,0.4-0.5c0-0.2,0-0.5-0.1-0.6C137.1,91.7,137,91.2,136.2,91z
					 M118.2,107.7c0.1-0.6,0.7-1.2,0.3-1.9c0,0-0.2,0-0.2,0C117.8,106.4,117.9,107.1,118.2,107.7z M137,78.6c0.1,0,0.2-0.1,0.2-0.1
					c0.3-0.4,0.3-0.8,0.1-1.2c0-0.1-0.3-0.2-0.3-0.1c-0.3,0.2-0.4,1-0.2,1.3C136.9,78.6,137,78.6,137,78.6z M136.3,89.5
					c0-0.1,0-0.2-0.1-0.2c-0.2-0.1-0.2,0-0.1,0.2c0,0.1,0.1,0.1,0.1,0.1C136.2,89.6,136.2,89.6,136.3,89.5z"/>
			</g>
			<g>
				<path d="M86.9,68.7c0-0.1-0.2-0.5-0.3-0.8c-0.7-2.1-1.8-4-3.4-5.6c-1.4-1.4-2.5-3-2.9-5.1C80,56,79.1,55,78.4,53.9
					c-0.8-1.2-1.4-2.5-1.6-3.9c-0.1-0.9-0.5-1.5-1-2.2c-1.2-1.5-2.6-2.8-4.5-3.3c-0.4-0.1-0.7-0.3-1-0.5c-1.1-0.5-1.8-1.3-1.9-2.6
					c-0.1-1.1-0.4-2.1-0.6-3.1c-0.2-1.3-0.4-2.6-0.6-3.8c-0.2-1.1,0-2.1,0.5-3.1c0.7-1.2,1.3-2.5,2.4-3.5C71,27.1,71.4,26,72,25
					c1-1.7,1.7-3.5,3-5.1c0.3-0.4,0.6-0.8,1-1.2c1.4-1.6,3-2.8,5.2-3c1.4-0.1,2.4-0.8,3.2-1.9c1.9-2.3,4.1-4.1,6.9-5.4
					c1.7-0.8,3.4-1.7,4.9-2.8c1.1-0.8,2.6-1.3,4-0.5c0.4,0.2,0.9,0.4,1.3,0.2c0.5-0.2,0.8,0,1.1,0.4c0.7,0.8,1.5,1,2.6,0.9
					c3-0.2,6-0.1,8.8,1.3c2.8,1.4,5.6,2.7,7.9,4.8c0.4,0.3,0.9,0.5,1.4,0.8c1.6,1,2.8,2.4,3.3,4.2c0.5,1.9,1.2,3.7,1.7,5.6
					c0.8,3.1,1.9,6.1,2.9,9.1c0.3,0.9,0.5,1.7,0.6,2.7c0.1,0.9-0.1,1.6-0.5,2.4c-1.2,2.2-2.1,4.5-3.4,6.6c-0.8,1.2-1.1,2.6-1.3,4.1
					c-0.3,1.8-0.4,3.6-0.2,5.4c0.1,1.3,0,2.6-0.6,3.8c-0.9,2.2-0.8,4.4-0.7,6.7c0,1.4,0.1,2.7,0.1,4.1c0,0.4,0,1-0.2,1.3
					c-0.7,1.5-1.6,2.9-1.9,4.6c-1.4,1.9-3.1,3.4-5.7,3c-1.1-0.2-2.1,0-3.1,0.4c-0.4,0.2-0.9,0.2-1.3,0.4c-0.9,0.3-1.8,0.3-2.6-0.1
					c-1.6-0.8-3.3-0.9-5.1-0.5c-2.2,0.5-4.2,0-6.1-1c-1.7-0.9-3.4-1.6-5.2-2.2c-1.4-0.4-2.7-0.9-4-1.6
					C88.7,71.7,87.6,70.5,86.9,68.7z M126.4,38.2c-0.2,0.1-0.3,0.3-0.5,0.4c-0.1,0.2-0.3,0.3-0.4,0.5c-1.6,3.5-3.4,6.9-4.7,10.6
					c-0.8,2.4-1.8,4.7-2.7,7c-0.5,1.2-1.1,2.3-1.6,3.5c-1.5,4.3-3.6,8.3-5,12.7c-0.4,1.1-0.9,2.1-1.3,3.1c1.4,1,2.7,0.7,4,0.2
					c0.3-0.1,0.5-0.3,0.4-0.7c-0.1-0.6,0-1.1,0.3-1.5c0.7-1.5,1.4-3,2.2-4.5c1.8-2.9,3.4-5.9,4.8-9c0.5-1.2,1.1-2.4,2.3-3.3
					c0.7-0.5,1-1.5,1.1-2.4c0.5-2.4,0.4-4.9,0.7-7.4c-0.7,0.3-0.8,0.8-1,1.3c-1.2,2.9-2.4,5.9-3.7,8.8c-1.4,3.3-2.5,6.7-4.2,9.8
					c-0.4,0.8-0.7,1.6-1.1,2.5c-0.2,0.4-0.4,0.8-0.6,1.2c-0.2,0.3-0.3,0.8-0.8,1c0.1-1.9,0.7-3.6,1.5-5.2c0.6-1.3,1.2-2.6,1.8-3.9
					c0.8-2,1.6-3.9,2.4-5.9c1.7-4,3.9-7.8,5.5-11.9c0.9-2.3,2-4.6,2.8-7c0.2-0.7,0.5-1.4,0.7-2.2c0.1-0.2,0.1-0.5-0.2-0.5
					c-0.2,0-0.4,0.2-0.5,0.3c-0.6,0.9-1.1,1.8-1.7,2.7c-0.3,0.4-0.6,0.3-1,0.3C126,38.4,126.2,38.3,126.4,38.2l-0.1-0.2L126.4,38.2z
					 M116.8,45.9c-0.2,0.2-0.3,0.4-0.1,0.6c-0.7,0.5-0.7,0.5-0.2,1.2l-0.1,0l0.1,0.1c0.1-0.4,0.1-0.9,0.2-1.3
					C116.9,46.4,117,46.2,116.8,45.9c0.3-0.1,0.4-0.3,0.2-0.6c0.9-0.3,1.1-1.1,1.2-2c0.2-0.2,0.3-0.4,0.1-0.6
					c0.3-0.1,0.5-0.3,0.6-0.6c0.6-1.2,1.1-2.3,1.7-3.5c1.7-3.6,3.1-7.4,5.1-10.9c0.3-0.5,0.4-1,0.6-1.5c0.1-0.4,0.1-0.9-0.2-1.3
					c-0.1-0.2-0.4-0.3-0.6-0.1c-0.3,0.4-0.5,0.8-0.6,1.2c-1.1,2.6-2.1,5.2-3.3,7.7c-1.2,2.5-2.2,5.1-3.1,7.8
					c-0.1,0.4-0.3,0.7-0.1,1.1c-0.3,0.2-0.4,0.4-0.1,0.6c-0.9,0.3-1.2,1.1-1.2,2C116.9,45.4,116.8,45.7,116.8,45.9z M113.1,54.2
					c0,0.2-0.1,0.4-0.1,0.6c-0.1,0.2-0.2,0.4-0.3,0.6c-0.2,0.2-0.2,0.4-0.1,0.6c-0.3,0.1-0.4,0.3-0.2,0.6c-0.3,0.1-0.4,0.3-0.2,0.6
					c-0.3,0.1-0.4,0.4-0.2,0.6c-0.5,0-0.6,0.3-0.8,0.7c-0.5,1.3-1,2.7-1.6,4c-1.2,2.6-1.8,5.5-3.3,7.9c-0.2,0.4-0.3,0.9-0.4,1.3
					c-0.2,0.6-0.3,1.2-0.6,1.7c-0.4,0.8-0.9,1.5-1.1,2.4c1,0.5,1.9-0.1,2.8,0c0.1,0,0.3,0,0.5,0c0.7-0.1,1.3-0.4,1.5-1.1
					c0.6-1.4,1.1-2.8,1.7-4.2c2.1-4.8,4.3-9.5,6.4-14.3c0.2-0.6,0.5-1.1,0.7-1.7c1.7-5,3.9-9.9,6.1-14.7c0.6-1.4,1.3-2.8,2-4.1
					c0.5-1,1.1-2,2.2-2.5l0-0.1c-0.3,0.3-0.4,0.6-0.2,1c-0.2,0.2-0.3,0.5-0.2,0.7c-0.1,0-0.3,0.1-0.4,0.1c-0.2,0.1-0.2,0.2,0,0.3
					c0,0,0.2,0,0.2-0.1c0.1-0.1,0.1-0.3,0.2-0.4c0.1-0.2,0.2-0.5,0.2-0.7c0.6-0.4,1-1,0.8-1.7c-0.4-1.2-0.8-2.4-1.3-3.7
					c-0.1-0.2-0.3-0.3-0.5-0.4c-0.3-0.1-0.4,0.2-0.5,0.4c-1.4,2.5-2.6,5.1-3.8,7.7c-1.2,2.8-2.4,5.6-3.7,8.3
					c-2.6,5.3-4.9,10.7-6.6,16.4c-0.4,1.2-0.7,2.5-1.1,3.7c-0.8,2.4-1.7,4.7-2.5,7.1c-0.1,0.4-0.3,0.9-0.4,1.3
					c-0.1,0.3-0.3,0.6-0.6,0.5c-0.4-0.1-0.3-0.5-0.2-0.7c0.6-2.3,1.1-4.6,1.9-6.8c1-2.6,1.6-5.2,2.5-7.8c0.1-0.2,0-0.4,0-0.7
					c0.2-0.2,0.3-0.4,0.2-0.6c0.3-0.1,0.4-0.3,0.2-0.6c0.3-0.1,0.4-0.3,0.2-0.6c0.2-0.2,0.3-0.4,0.1-0.6c0.2-0.1,0.4-0.3,0.3-0.6
					C113.1,54.6,113.2,54.4,113.1,54.2c0.2-0.2,0.3-0.5,0.2-0.7c0.4,0,0.6-0.3,0.8-0.7c0.2-0.4,0.4-0.8,0.6-1.2l-0.1,0l0.1,0.1
					c-0.8,0.3-1.1,1.1-1.3,1.8C113.3,53.7,113.2,54,113.1,54.2z M81.2,48.2c-1.4,1.3-1.3,3.1-1.7,4.8c0,0.1,0.1,0.3,0.2,0.3
					c0.1,0,0.3-0.1,0.3-0.2c0.5-1.4,0.9-2.9,1.3-4.3C81.4,48.6,81.2,48.3,81.2,48.2c0.3-0.1,0.3-0.3,0.2-0.6c0.7-0.3,0.8-1,1.1-1.7
					c1.2-3,2.2-6,3.4-8.9c2.3-5.7,4.5-11.4,6.6-17.2c1.4-3.7,2.6-7.4,4.5-10.9c0.2-0.3,0.5-0.7,0.1-1c-0.3-0.4-0.7-0.1-1,0.1
					c-0.3,0.3-0.7,0.5-1.2,0.6c-1.1,0.3-1.6,1.1-1.9,2.1c-0.3,1.1-0.7,2.2-1.1,3.2c-2.6,6.8-5,13.6-6.9,20.7
					c-0.9,3.3-2.1,6.5-3.1,9.7c-0.3,1-0.9,2.1-0.6,3.2C81.1,47.7,81,47.9,81.2,48.2z M75.9,39.4c0-0.2,0-0.5,0-0.7
					c1.2-3.3,2.4-6.5,3.6-9.8c1.2-3.3,2.5-6.7,3.9-9.9c0.3-0.7,0.8-1.3,0.5-2.1c-2-0.1-2.3,0-2.9,1.7c-1,3.2-1.9,6.4-2.8,9.6
					c-0.7,2.3-1.1,4.7-2,7c-0.4,1-0.8,2-0.8,3.1C75.4,38.6,75.5,39,75.9,39.4l-0.1,0L75.9,39.4z M84.5,49.5l-0.1,0.1L84.5,49.5
					c1.4-4.4,3-8.8,4.8-13.1c0.8-1.9,1.5-3.8,2.3-5.7c1.4-3.6,2.6-7.3,4.3-10.7c0.5-1,0.9-2.1,1.2-3.2c0.9-2.6,1.9-5.1,3-7.6
					c0.3-0.6,0.5-1.3,0.7-1.9c0.1-0.3-0.1-0.6-0.4-0.7c-0.6-0.3-1-0.2-1.4,0.3c-0.7,1.2-0.9,2.6-1.4,3.8c-2.1,4.6-3.9,9.4-5.3,14.2
					c-0.7,2.4-1.7,4.7-2.6,7c-0.6,1.5-1.2,2.9-1.7,4.5c-0.7,2.2-1.3,4.4-2.3,6.4c-1.4,2.8-2.4,5.7-3.4,8.7c-0.4,1.4-0.9,2.7-1.7,3.9
					c0.5,0.7,1,1.4,1.7,2.4C82.8,54.7,83.5,52.1,84.5,49.5z M88.3,16.8L88.3,16.8c-0.6,0.4-0.8,1.2-1,1.9c-0.6,1.5-1.2,3.1-1.9,4.6
					C84,26.1,83,29,82.1,32c-1.5,4.5-2.4,9.2-3.9,13.8c-0.2,0.7-0.5,1.4-0.6,2.2c-0.2,1.2,0.3,2.4,0.8,3.5c0,0.1,0.3,0.1,0.4,0
					c0.4-0.3,0.5-0.8,0.6-1.2c1.2-4.2,2.5-8.4,3.9-12.6c1-3,1.8-6.1,2.7-9.1c1.6-5.1,3.4-10.2,5.3-15.2c0.3-0.8,0.6-1.6,0.8-2.4
					c0.1-0.3-0.2-0.6-0.5-0.5c-0.5,0.1-1,0.4-1.3,0.8c-0.4,0.6-0.9,1-1.5,1.4c-1.9,1.4-3.2,3.3-3.8,5.5c-0.6,2-1.2,3.9-2,5.8
					c-0.4,1.1-0.9,2.4-0.7,3.7c0.5-0.2,0.6-0.6,0.8-0.9c0.9-2,1.8-4,2.8-6C86.4,19.3,86.9,17.8,88.3,16.8z M93,46.6L93,46.6L93,46.6
					c0.8-2.4,1.7-4.8,2.6-7.2c0.5-1.5,1.2-3,1.6-4.5c0.7-2.9,1.7-5.6,2.7-8.5c2-5.8,3.9-11.7,6.3-17.3c0-0.1,0-0.1,0.1-0.2
					c0-0.2,0.1-0.5-0.1-0.6c-0.3-0.1-0.6,0-0.8,0.2c-0.3,0.5-0.5,0.9-0.7,1.4c-0.5,1.2-1,2.4-1.5,3.6c-1,2.2-2,4.4-2.9,6.7
					c-1.6,3.9-3.1,7.7-4.6,11.6c-1.4,3.6-2.9,7.2-4.4,10.7c-0.3,0.8-0.6,1.5-0.9,2.3c-1.5,4.8-2.9,9.6-4.4,14.4
					c-0.2,0.5-0.3,1-0.6,1.5c-0.6,0.9-0.6,1.7,0.3,2.4c0.3,0.2,0.5,0.6,0.8,0.9c0.8,0.9,1.3,0.8,1.9-0.2c1-2,1.6-4.1,2.2-6.2
					c0.2-0.8,0.7-1.5,0.6-2.4c1.2-1,1.6-2.5,2.2-3.9c1-2.3,1.9-4.6,3-6.9c2.9-6.2,5-12.7,7.6-19c1.8-4.4,3.1-9,5-13.4
					c0.5-1,0.8-2.1,1.2-3.2c0.1-0.3,0-0.6-0.4-0.7c-1.3-0.2-1.9,0.1-2.4,1.2c-1.4,3.8-2.9,7.5-4.1,11.3c-0.8,2.5-1.5,4.9-2.5,7.3
					c-0.4,0.9-0.7,1.8-0.9,2.8c-1.4,5.3-3.5,10.3-5.4,15.5c-0.3,0.8-0.7,1.5-1,2.3c-0.8,1.8-1.5,3.6-2.3,5.4c-0.2,0.4-0.3,0.9,0,1.3
					c-0.4,0.1-0.6,0.4-0.8,0.7c-0.6,1.2-1.2,2.4-1.6,3.7c-0.2,0.9-0.5,1.8-1.4,2.4c-0.6-1,0-1.8,0.3-2.7c0.9-2.4,1.9-4.7,2.9-7.1
					C91.3,50.3,92.2,48.5,93,46.6z M115.4,12.1c0.1,0,0.2,0,0.3,0.1c-0.6,1.6-1.1,3.3-1.7,4.9c-2.2,5.6-4.5,11.1-6.3,16.8
					c-0.8,2.5-2,4.9-2.6,7.5c-0.1,0.4-0.3,0.8-0.6,1.2c-0.7,1.1-1.1,2.3-1.6,3.5c-0.6,1.5-1.2,2.9-1.8,4.4c-1.1,2.4-2.3,4.8-3.2,7.3
					c-1.4,4.1-3.1,8.1-4.8,12c-0.8,1.8-1.1,1.6,1,2.6c0.7,0.3,1,0.2,1.1-0.5c0.1-0.7,0.2-1.4,0.2-2c0-0.7,0.1-1.4,0.4-2
					c0.7-1.9,1.4-3.9,2.1-5.8c0.5-1.2,0.9-2.4,1.5-3.6c0.8-1.5,1.4-3,1.9-4.6c0.2-0.6,0.3-1.2,0.6-1.7c2.1-4.3,3.6-8.9,5.3-13.3
					c1.4-3.5,2.7-7.1,4.2-10.6c1.6-4,3.3-8,4.9-12c0.4-1.1,0.8-2.1,1.2-3.2c0.4-1.3,0.4-1.5-1.1-2.1c-0.5-0.2-0.6-0.6-1-0.8
					c-0.9-0.5-1.4-0.4-1.8,0.6c-0.8,2-1.7,4.1-2.4,6.1c-0.8,2.3-1.6,4.6-2.6,6.8c-0.6,1.2-0.9,2.4-1.3,3.6c-1.1,3.2-2.1,6.3-3.5,9.4
					c-0.7,1.7-1.6,3.3-2.3,5c-1.3,3.2-2.5,6.3-3.8,9.5c-0.5,1.3-1.2,2.6-1.6,4c-0.9,3.3-2.8,6.2-3.8,9.5c-0.1,0.3-0.3,0.7-0.9,0.5
					c0.3-1.5,0.4-3,1.2-4.3c1.1-1.9,1.3-4.4,3-6c0,0,0-0.2,0-0.2c-0.5-1,0.2-1.8,0.5-2.6c0.9-2.4,1.9-4.8,2.8-7.2
					c1.1-2.8,2.1-5.5,3.5-8.2c0.7-1.4,1.2-2.9,1.7-4.4c0.8-2.4,1.6-4.8,2.5-7.1c1.6-3.9,3.2-7.8,4.8-11.8c0.5-1.3,1-2.6,1.4-3.9
					c0.1-0.3,0-0.6-0.3-0.8c-0.3-0.2-0.7-0.3-1,0c-0.3,0.2-0.6,0.6-0.6,0.9c-0.6,2.1-1.6,4.1-2.4,6.1c-2.8,7.5-5.5,14.9-8.3,22.4
					c-0.6,1.6-1.2,3.1-2.1,4.6c-1.2,2.1-2.2,4.3-3.2,6.6c-0.5,1.1-1.1,2.2-1.5,3.3c-1.4,3.9-2.5,7.9-4.3,11.7
					c-0.1,0.3-0.2,0.6-0.3,0.9c-0.5,1.6,0,3,0.9,4.3c1.1,1.4,1.6,1.4,2.3-0.3c1.6-3.2,2.9-6.5,4.2-9.8c0.8-2,1.7-4,2.5-6.1
					c0.7-1.6,1.2-3.3,1.9-4.9c1.2-3.1,2.4-6.2,3.7-9.3c0.9-2.2,1.5-4.5,2.3-6.7c1.6-4.3,3.6-8.5,5-12.9c0.1-0.3,0.3-0.6,0.4-0.8
					C113.2,16.5,114.3,14.3,115.4,12.1z M102.5,73c0.1-2.7,0.3-3.8,1.4-5.9c0.2-0.4,0.4-0.8,0.6-1.2c1.3-3,2.6-6,3.9-9
					c0.5-1.2,0.9-2.4,1.5-3.6c1.6-3.4,2.9-6.8,4.2-10.3c2.2-5.8,4.3-11.7,6.4-17.5c0.9-2.5,1.7-5,2.5-7.6c0.2-0.6,0.3-1.2,0.3-1.8
					c0-0.5-0.3-0.8-0.8-1c-0.4-0.2-0.7,0.1-0.9,0.5c-0.2,0.3-0.4,0.7-0.5,1c-0.9,2.5-1.8,5-2.7,7.5c-0.2,0.6-0.4,1.1-0.6,1.7
					c-2,4.6-4.2,9.1-5.9,13.8c-2,5.3-4.3,10.5-6.5,15.7c-1.1,2.6-2.2,5.2-3.1,7.8c-0.2,0.7-0.5,1.4-0.8,2.1c-1,2.6-2,5.2-3,7.9
					c-0.1,0.3,0,0.6,0.3,0.8c1.4,0.7,2.8,1.4,4.3,2c0.2-0.3,0.4-0.4,0.4-0.6c1-2.4,2.1-4.9,3.1-7.3c1.2-3.2,2.4-6.4,3.6-9.6
					c1-2.8,2.3-5.5,3.5-8.1c1.8-4.1,3.5-8.2,5.2-12.4c1-2.6,2.2-5.2,3.4-7.7c1-2,2-4.1,3-6.1c0.5-0.9,0.7-1.9,0.4-2.8
					c-0.3-1.1-0.7-2.1-1.3-3.2c-0.9,0.5-1,1.2-1.2,1.9c-0.2,0.9-0.2,1.8-0.5,2.7c-1.2,3.7-2.4,7.4-3.7,11c-1.2,3.5-2.6,7-3.9,10.4
					c-0.2,0.4-0.3,0.9-0.5,1.3c-2,4.8-3.9,9.7-5.9,14.5c-0.8,2-1.7,4.1-2.7,6c-0.9,1.8-1.9,3.5-2.3,5.4
					C103.4,72,103.3,72.7,102.5,73z M121.1,14.3c-0.2-0.6-0.6-0.8-1-1c-1.2-0.8-1.5-0.8-2,0.5c-0.3,0.9-0.6,1.9-0.9,2.8
					c-0.9,2.7-1.6,5.4-2.7,7.9c-1,2.4-2.2,4.8-3.1,7.3c-1.4,3.8-3.1,7.4-4.4,11.2c-1.8,5.1-3.9,10.2-6.1,15.2
					c-0.9,2-1.6,4.1-2.4,6.1c-1,2.6-1.5,5.4-2.7,7.9c-0.1,0.2-0.2,0.4,0.1,0.6c0.3,0.1,0.6,0.3,0.8,0c0.2-0.3,0.4-0.6,0.6-1
					c1.4-3.3,2.8-6.5,4.1-9.8c1.8-4.5,3.6-9,5.3-13.5c0.1-0.4,0.3-0.7,0.5-1c0.9-2.1,1.9-4.1,2.7-6.2c0.4-1.1,1.1-2.1,1.4-3.3
					c0.3-1.4,1-2.7,1.5-4c1.6-3.4,3.1-6.9,4.6-10.4c1-2.3,1.7-4.7,2.9-6.9c0.3-0.5,0.4-1.1,0.6-1.7
					C121.1,14.7,121.1,14.4,121.1,14.3z M104.2,8.3c-0.1-0.1-0.1-0.2-0.1-0.2c-0.7-0.8-2.2-0.7-2.6,0.2c-0.6,1.4-1.2,2.8-1.7,4.2
					c-1.4,4.2-2.8,8.3-4.8,12.3c-0.2,0.3-0.2,0.7-0.4,1.1c-1.1,3.8-2.6,7.4-4.2,11c-1.4,3-2.1,6.2-3.8,9c0.1,1.7-0.9,3.2-1.4,4.7
					c-0.9,2.7-1.4,5.4-2.5,8c-0.3,0.6-0.2,1.1,0.4,1.6c0.7,0.6,1,0.5,1.2-0.4c0.4-1.6,0.8-3.2,1.5-4.8c0.4-1,0.7-2,1-3
					c1-3.6,2.1-7.1,3.4-10.6c1.4-3.5,3-6.9,4.2-10.5c0.6-1.7,1.3-3.4,1.9-5.1c0.5-1.2,0.9-2.4,1.4-3.6c0.6-1.6,1.3-3.2,2.1-4.8
					c1.5-2.8,2.9-5.7,4.3-8.5C104.2,8.7,104.2,8.5,104.2,8.3z M72.8,43.9c0.3,0,0.4-0.4,0.4-0.6c0.6-3.4,1.4-6.7,2.6-9.9
					c0.3-0.8,0.5-1.6,0.7-2.4c0.7-2.8,1.5-5.5,2.4-8.3c0.5-1.5,0.9-3.1,1.3-4.6c0.1-0.2,0-0.5-0.2-0.5c-0.1,0-0.3,0-0.4,0.1
					c-1.3,1-2,2.3-2.4,4c-0.7,2.8-1.4,5.6-2.3,8.3c-1.1,3.6-1.8,7.4-2.8,11c-0.2,0.8-0.2,1.7,0,2.5C72.1,43.8,72.4,44,72.8,43.9z
					 M121.8,62.2c-0.3,0.5-0.6,1-0.8,1.6c-1.4,2.9-2.7,5.9-4.1,8.9c-0.3,0.7-0.6,1.4-0.8,2.1c-0.2,0.5-0.2,0.9,0.4,1.1
					c1.5,0.6,1.9,1,2.3-1c0-0.2,0.1-0.4,0.2-0.7c0.7-2.4,1.3-4.9,2.4-7.1C122.2,65.5,122.4,63.9,121.8,62.2z M70.2,42.1
					c0-0.1,0,0.1,0.1,0.2c0.1,0.1,0.3,0.1,0.4,0.1c0.1,0,0.1-0.1,0.2-0.1c0.1-0.3,0.1-0.6,0.2-0.9c0.8-5,1.9-10,3.6-14.7
					c0.2-0.4,0.3-0.9,0.4-1.3c0-0.1-0.1-0.3-0.1-0.4c-0.1,0-0.3,0-0.4,0.1c-0.8,1.4-1.7,2.7-2.3,4.2c-1.1,2.7-1.8,5.6-1.9,8.6
					c0,0.5,0,0.9-0.3,1.3C69.4,40.1,69.6,41,70.2,42.1z M78.9,35.1c-0.3,0.2-0.4,0.3-0.5,0.4c-0.6,1.5-1.1,3-1.7,4.4
					c-0.6,1.5-0.9,3.1-1.6,4.5c-0.4,0.7,0.1,1.7,0.9,2c0.1,0,0.3,0,0.4-0.1c0.1-0.3,0.3-0.5,0.3-0.8c0.8-3.2,1.5-6.5,2.3-9.7
					C79,35.7,79,35.5,78.9,35.1z M122.1,69.3c-0.3-0.2-0.5,0-0.6,0.1c-1,1.9-1.6,3.9-2.2,5.9c-0.1,0.3,0,0.6,0.3,0.8
					c0.2,0.1,0.5,0.1,0.6,0c0.6-0.3,1.1-0.7,1.4-1.4c0.7-1.7,1-3.4,0.6-5.2C122.2,69.4,122.1,69.3,122.1,69.3z M70.9,30.5
					c-1,0.9-1.9,1.8-1.8,3.2c0,0.6-0.2,1.2,0.2,1.7c0.8-0.3,0.6-1.1,0.8-1.7C70.4,32.7,70.6,31.6,70.9,30.5z"/>
			</g>
			<g>
				<path d="M66.7,111.6c-0.1,0.1-0.6,0.3-1.1,0.6c-1.2,0.7-2.4,0.8-3.7,0.5c-1-0.2-2.1-0.5-3.1-0.8c-2.8-1-5.1-2.6-6.2-5.6
					c-0.2-0.5-0.4-1-0.6-1.5c-0.3-0.9-0.9-1.6-1.8-1.9c-0.8-0.3-1.4-0.8-1.9-1.6c-0.6-0.9-1.5-1.5-2.4-2c-0.5-0.3-1.1-0.5-1.6-0.9
					c-0.6-0.5-1.3-0.8-2-1c-1.7-0.4-3.3-1.2-4.1-2.9c-0.3-0.6-0.9-1-1.3-1.5c-1-1.2-2.3-1.5-3.7-1c-1.7,0.5-3.4,0.4-5.2,0.3
					c-1.8-0.1-3.2-0.7-4.2-2.3c-0.3-0.5-0.7-1-1.3-1.2c-1.3-0.6-1.7-1.7-1.9-2.9c-0.1-0.4-0.1-0.8-0.1-1.1c0.1-2.6,0.2-5.3,0.3-7.9
					c0.1-2.4,0.5-4.8,0.1-7.2c-0.3-1.6,0-3.1,0.7-4.6c0.6-1.3,1.1-2.4,1.9-3.6c0.8-1.2,1.4-2.7,2.3-3.9c2.2-2.7,4.3-5.5,7.8-6.6
					c0.7-0.2,1.3-0.7,1.9-1.2c1.1-1.1,2.3-2.2,3.4-3.4c0.8-0.8,1.6-1.5,2.6-2.1c1.1-0.6,2.2-1.4,3.2-2.2c0.8-0.7,1.8-1.1,2.7-1.6
					c2.6-1.5,5.3-1.7,8.1-1.2c1.4,0.2,2.8,0.4,4.3,0.4c1.5,0,2.8,0.3,4.2,0.8c1,0.4,1.7,1,2,2c0.1,0.5,0.4,1,0.6,1.5
					c0.5,1.3,1.2,2.4,2.3,3.3c0.6,0.5,1.2,1.1,1.8,1.7c1.6,1.5,2.6,3.3,3.4,5.3c0.3,0.7,0.5,1.4,0.8,2.1c0.4,0.9,0.9,1.7,1.7,2.3
					c0.2,0.2,0.5,0.4,0.7,0.6c1.8,1.2,2.2,3,2,5c0,0.4-0.1,0.9-0.3,1.3c-0.6,2.1-0.7,4.2-0.4,6.3c0.1,0.7,0.1,1.4-0.1,2
					c-0.6,2.1-1.3,4.2-2.9,5.9c-0.5,0.5-0.8,1.1-1.3,1.6c-0.5,0.7-0.8,1.4-0.9,2.3c-0.2,1.3-0.5,2.5-0.5,3.8c-0.1,3.1-1,6.1-2,9.1
					c-0.3,0.8-0.3,1.6-0.2,2.4c0.2,1.6,0.3,3.2,0.5,4.7c0.2,1.6-0.1,3.2-0.4,4.7c-0.1,0.8-0.6,1.4-1.3,1.7
					C68.8,110.7,67.9,111.1,66.7,111.6z M28.7,80.3c0,0.2-0.1,0.4-0.1,0.7c-1.5,2.4-1.9,5.2-3.3,7.7c-0.3,0.5,0,1,0.4,1.5
					c0.5,0.5,1,0.9,1.7,1.1c0.8,0.3,1.5,0,1.8-0.9c0.3-0.8,0.5-1.6,0.8-2.4c1.9-5,3.7-9.9,5.6-14.9c1.8-4.6,3.5-9.2,5.4-13.7
					c1-2.4,2-4.9,3.5-7.1c1-1.6,2-3.2,2.6-5c0.3-1,0.8-1.9,1.4-2.9c0.5-0.8,0.9-1.7,1.3-2.6c0.1-0.3,0.3-0.6,0-0.8
					c-0.3-0.3-0.7-0.2-1.1-0.1c-0.8,0.4-1.6,0.8-2.4,1.3c-0.2,0.1-0.4,0.4-0.5,0.7c-0.7,1.8-1.4,3.7-2.1,5.5
					c-1.1,2.6-2.1,5.2-3.3,7.7c-0.7,1.4-1.4,2.9-2,4.3c-1.1,2.6-2.1,5.2-3.5,7.6c-2,3.7-3.5,7.7-4.4,11.9c-0.6,2.6-1.4,5.1-2.3,7.6
					c-0.3,0.9-0.9,1.5-1.8,1.9c-0.2-0.5,0.1-0.8,0.2-1.1c0.7-1.9,1.3-3.9,2-5.8c0.2-0.5,0.3-1-0.1-1.5
					C28.6,80.8,28.7,80.6,28.7,80.3l0.1,0L28.7,80.3z M22.1,76.7c0.2-0.1,0.4-0.2,0.6-0.4c1.4-3.3,2.8-6.5,4.4-9.7
					c0.7-1.4,1.2-2.9,1.5-4.5c0.3-1.8,1.1-3.5,1.7-5.2c0.1-0.2,0.1-0.5-0.1-0.6c-0.1,0-0.3,0-0.4,0.1c-0.7,0.6-1.1,1.4-1.4,2.3
					c-0.3,1-0.7,2-1,3c-0.8,2.1-1.7,4.2-2.4,6.3c-0.7,1.8-1.2,3.6-2.1,5.2c-0.4,0.7-0.5,1.6-0.4,2.4c0,0.2,0.3,0.3,0.4,0.5
					C22.4,76.3,22.2,76.5,22.1,76.7l0.1,0.2L22.1,76.7z M50,60.3L50,60.3C50,60.4,49.9,60.3,50,60.3c0-0.3,0.1-0.6,0.2-0.9
					c0.5,0,0.9-0.2,1.1-0.6c0.6-1.1,1.3-2.2,1.9-3.4c1.6-3.1,3.2-6.2,5-9.2c0.9-1.5,1.6-3.1,2.3-4.5c-0.3-0.4-0.5-0.5-0.9-0.5
					C58.8,41.1,58,41,57.1,41c-1.2-0.1-1.2-0.1-1.7,1c-1.1,2.5-2.2,5-3.3,7.5c-0.5,1-1.1,2-1.4,3.1c-0.6,2.3-1.5,4.4-2.9,6.4
					c-0.3,0.4-0.4,0.8-0.6,1.2c-1.9,3.7-3.6,7.5-5.8,11.1c-0.5,0.8-1,1.7-1.4,2.6c-2.4,5.1-4.7,10.2-7,15.3
					c-0.1,0.3-0.2,0.6-0.3,0.9c-0.2,0.5,0.2,0.9,0.7,0.8c0.4,0,0.9-0.1,0.9-0.6c0-1,0.5-1.7,0.9-2.5c2.1-4.4,4.2-8.7,6.3-13.1
					c1.7-3.5,3.3-7,5.2-10.4c1.6-3,3.3-6,4.3-9.3c0.8-2.5,2-4.7,3.5-6.9l0,0.1c-0.1,1.5-0.7,2.9-1.3,4.3c-0.8,1.6-1.6,3.2-2,5
					c-0.2,0.7-0.4,1.5-0.9,2C50.3,59.8,50.2,60,50,60.3z M67.7,103.1c0.1,0,0.1,0,0.2-0.1c0.1,0,0.1-0.1,0.1-0.1
					C68,103,67.9,103.1,67.7,103.1c0,0.3,0,0.6,0.2,0.9c-0.9,0-1.3,0.8-2,1.2c0.4-1.3,1.2-2.4,2-3.5c0.7-0.9,1-2,0.9-3.2
					c0-0.1-0.2-0.2-0.3-0.3c0,0-0.1,0-0.2,0c-0.1,0.1-0.2,0.2-0.3,0.3c-1.6,2.7-3.3,5.2-5.2,7.7c-0.1,0.2-0.2,0.4-0.3,0.6
					c-0.5,1.1-1.3,2-2.2,2.9c-0.3,0.3-0.9,0.3-0.8,0.9c0.4,0.5,1,0.7,1.6,0.6c0.7-0.1,0.9-0.7,1.2-1.2c0.5-1,1.1-2,1.7-2.9
					c0.5-0.8,1-1.5,1.9-1.9c-0.2,1-1,1.7-1.3,2.6c-0.2,0.5-0.7,0.8-0.4,1.4c-0.1,0.1-0.3,0.1-0.4,0.2c-0.4,0.5-1.1,1-1,1.8
					c0,0,0.1,0.1,0.2,0.1c0.8-0.3,0.7-1,1-1.6c0.1-0.1,0.1-0.3,0.1-0.4c1.6-1.4,2.7-3.3,3.6-5.1C67.7,103.6,67.7,103.4,67.7,103.1z
					 M55.2,92.5c0.4-0.1,0.8-0.2,0.9-0.7c1.9-1.8,3.2-4,4.7-6.1c1.6-2.3,2.9-4.8,4.6-7c0.7-0.9,1.4-1.8,2-2.7
					c1.2-1.7,2.4-3.5,3.7-5.1c0.9-1,1.6-2.2,2.2-3.4c0.6-1.1,1.4-2.1,2.1-3.2c0.1-0.1,0.3-0.2,0.4-0.2c0.3,0.1,0.3,0.3,0.2,0.5
					c-0.7,2-1.8,3.8-3.1,5.5c-2.4,3.1-4.9,6.2-7,9.5c-2.4,3.9-5.2,7.7-7.8,11.5c-0.6,0.9-1.3,1.7-1.9,2.6c-1.6,2.7-3,5.5-5.2,7.8
					c1.2,0.8,1.2,0.8,1.7,0.1c0.2-0.3,0.4-0.6,0.7-0.9c1.3-1.9,2.5-3.8,3.8-5.7c2.3-3.3,4.7-6.5,7.1-9.7c0.5-0.7,1-1.5,1.6-2.2
					c1.3-1.5,2.5-3,3.4-4.8c0.3-0.5,0.6-1,1-1.5c2.2-2.8,4.4-5.6,6.6-8.4c0.4-0.4,0.5-0.9,0.5-1.5c-0.1-1.5-0.4-3-0.8-4.5
					c-0.1-0.5-0.7-0.6-1-0.1c-0.5,0.7-1,1.3-1.4,2c-1.8,2.8-3.7,5.5-5.9,8c-0.8,1-1.7,2-2.3,3.1c-1.2,1.9-2.5,3.7-3.8,5.4
					c-2.5,3.1-4.1,6.7-6.1,10.1c-0.2,0.3-0.3,0.7,0,1C55.6,91.7,55.4,92.1,55.2,92.5c-0.1,0.2-0.1,0.5,0,0.7c-0.5,0.1-0.7,0.5-1,0.8
					c-1.6,1.7-2.9,3.8-4.9,5.3c-0.3,0.2-0.2,0.5,0,0.8c0.5,0.6,1,0.7,1.5,0.2c1.9-2.1,3.4-4.4,4.3-7.1C55.3,93,55.4,92.7,55.2,92.5z
					 M46.7,67.6c-0.9,0.4-0.9,0.4-0.9,1.3c-0.3,0.1-0.4,0.4-0.2,0.7c-0.7,0-0.8,0.5-1.1,1c-1.6,2.6-3,5.3-4.2,8
					c-1.3,3.1-2.8,6.1-4.1,9.1c-0.3,0.7-0.5,1.4-0.7,2.2c0,0.2,0.1,0.5,0.2,0.6c0.3,0.2,0.6,0.1,0.8-0.1c0.4-0.5,0.7-1.2,1-1.8
					c1.4-3.3,2.9-6.7,4.3-10c1.1-2.4,2.2-4.8,3.3-7.3c0.2-0.5,0.4-1.2,0.5-1.7c0.1-0.2,0.1-0.4,0.2-0.7C46.2,68.6,46.4,68,46.7,67.6
					c0-0.1,0-0.1,0-0.1C46.7,67.5,46.7,67.6,46.7,67.6z M23,70c0.1-0.1,0.3-0.2,0.3-0.3c0.6-1.8,1.1-3.6,1.6-5.4
					c0-0.1,0-0.3-0.1-0.4c-0.3-0.1-0.4,0.1-0.5,0.3c-0.5,0.9-1,1.8-1.4,2.8C22.5,68,22.3,69,23,70l0,0.2L23,70z M34.2,66.1
					c0.3,0,0.6-0.2,0.7-0.4c0.3-0.6,0.7-1.2,0.9-1.8c1.4-3.2,2.8-6.4,4.2-9.6c1.4-3.1,2.5-6.4,4-9.4c0.2-0.3,0.3-0.7,0.3-1.1
					c0-0.1-0.1-0.3-0.2-0.3c-0.1-0.1-0.3-0.1-0.4,0c-0.9,0.8-2.2,1.4-2,3c0,0.4-0.3,0.8-0.5,1.2c-0.3,0.6-0.6,1.2-0.8,1.9
					c-0.5,1.8-1.2,3.4-1.9,5.1c-1.2,2.9-2.4,5.7-3.5,8.6C34.7,64.2,34.2,65.1,34.2,66.1c0.1,0.2,0.1,0.3,0.1,0.1
					C34.3,66.2,34.2,66.2,34.2,66.1z M45,89.9c0.4-0.1,0.6-0.4,0.8-0.8c0.5-0.9,1.1-1.8,1.6-2.8c1.7-3.2,3.5-6.3,5.2-9.6
					c2-3.8,3.8-7.6,5.7-11.3c2.3-4.5,4.7-9,7.7-13.1c0.6-0.9,1.1-1.8,1.4-2.9c0.1-0.3,0.1-0.6-0.1-0.9c-0.3-0.4-0.6-1-1.2-1
					c-0.5,0-0.6,0.6-0.8,1c-1,2.1-1.9,4.3-3.1,6.3c-2.5,4.2-4.4,8.7-6.6,13c-2.3,4.4-4.6,8.9-6.9,13.3c-1.3,2.5-2.5,5-3.6,7.6
					C44.9,89.1,44.7,89.5,45,89.9c-0.6,0.2-0.7,0.7-1,1.2c-0.5,1-0.9,2-1.8,2.7c0-0.2,0-0.5,0-0.7c1.1-3.5,2.5-6.8,4.2-10
					c1.5-2.9,3.3-5.6,4.6-8.6c1.4-2.9,2.9-5.8,4.3-8.7c1.4-2.9,2.6-5.8,4.2-8.6c1.5-2.7,2.9-5.5,4.4-8.2c0.3-0.6,0.6-1.2,0.8-1.9
					c0.2-0.5,0.1-1-0.2-1.5c-0.3-0.5-0.8-0.5-1.1-0.1c-0.2,0.3-0.3,0.5-0.4,0.8c-1.3,2.6-2.4,5.2-3.3,8c-0.8,2.1-1.5,4.3-2.8,6.2
					c-2.5,3.6-4.3,7.6-6.5,11.4c-0.2,0.4-0.4,0.8-0.6,1.2c-0.2,0.5-0.4,1-0.7,1.4c-0.8,1.3-1.5,2.6-2.1,4c-0.3,0.7-0.6,1.6-1.3,2.1
					c-0.1-0.7,0.3-1.3,0.6-1.9c0.8-1.7,1.5-3.5,2.3-5.2c0.5-1,0.9-2.1,1.5-3c0.6-1,1.1-2,1.5-3.1c0.6-1.8,1.5-3.5,2.5-5.1
					c1.3-2.2,2.4-4.5,3.5-6.9c0.5-1,0.7-2.2,1.2-3.2c1.1-1.9,1.7-4,2.8-5.9c0.5-0.8,0.8-1.6,1.2-2.4c0.3-0.5,0.4-1,0.2-1.5
					c-0.1-0.2-0.4-0.5-0.6-0.6c-0.1-0.1-0.4,0.1-0.6,0.3c-0.3,0.5-0.6,1-0.9,1.6c-2.2,4.5-4.7,8.8-7.1,13.2
					c-1.5,2.6-2.9,5.3-4.2,8.1c-1.1,2.4-2.4,4.7-3.5,7.2c-1.9,4.2-3.6,8.5-5.5,12.7c-0.9,1.9-1.5,4-2.7,5.8c-0.2,0.4-0.1,0.7,0.2,1
					c0.3,0.2,0.6,0.4,0.9,0.6c0.4,0.2,0.8,0.1,0.9-0.3c0.4-1,0.8-2,1.2-2.9c0.3-0.8,0.6-1.7,1.1-2.5c0.9-1.8,1.9-3.6,2.9-5.4
					c0.1-0.2,0.3-0.3,0.5-0.5c-0.1,1.7-0.9,3.2-1.6,4.7c-1.1,2.4-2.2,4.8-3.3,7.2c-0.5,1.2-0.3,1.6,1.2,2c0.3,0.2,0.8,0.5,1,0.1
					C43.7,92.9,44.8,91.6,45,89.9z M56.1,75L56.1,75c-0.1-0.5,0.2-1,0.5-1.5c2.4-3.8,4.3-7.8,6.9-11.5c0.4-0.5,0.7-1,1-1.5
					c1.6-2.9,3.2-5.8,4.7-8.8c0.1-0.3,0.3-0.6,0.3-0.9c0-0.3-0.2-0.6-0.5-0.7c-0.2-0.1-0.4,0-0.6,0.2c-0.1,0.2-0.2,0.4-0.4,0.6
					c-2,3.4-3.9,6.8-5.9,10.2c-2.6,4.3-4.6,8.8-7,13.2c-1.2,2.1-2,4.4-3.2,6.5c-2,3.4-3.9,6.9-5.7,10.3c0,0.1,0,0.1,0,0.2
					c0,0,0,0,0.1,0c-0.1-0.1-0.1-0.2-0.2-0.2c1.1,0,1.6-0.8,2.1-1.5c1.2-1.5,2.3-3.2,3.5-4.8c1.8-2.6,3.7-5.2,5.5-7.8
					c0.8-1.1,1.6-2.2,2.2-3.4c1-1.9,2.1-3.7,3.5-5.3c0.4-0.5,0.8-1.1,1.2-1.6c1.8-2.4,3.3-5.1,5.2-7.4c0.8-0.9,1.3-2,1.9-3.1
					c0.3-0.5,0.5-1,0.3-1.5c-0.2-0.7-0.4-1.5-0.8-2.1c-0.4-0.6-0.9-0.6-1.2,0c-1,1.8-2,3.5-2.9,5.4c-0.7,1.4-1.5,2.8-2.4,4.1
					c-0.5,0.7-0.9,1.4-1.3,2.1c-2,3.3-3.9,6.7-5.8,10C56.7,74.6,56.5,74.9,56.1,75z M54.4,40.7c-0.1-0.1-0.2-0.3-0.3-0.3
					c-0.4-0.1-0.9-0.1-1.3-0.2c-0.8,0-1.2,0.2-1.3,0.9c-0.6,3-2.1,5.5-3.5,8.1c-2.4,4.2-4.5,8.6-6.4,13c-1.6,3.6-2.9,7.3-4.4,11
					c-1.9,4.8-3.7,9.6-5.6,14.4c-0.4,0.9-0.7,1.8-1,2.8c0,0.1,0,0.3,0.1,0.4c0.2,0.2,0.4,0,0.5-0.2c0.4-0.8,0.8-1.5,1-2.3
					c0.5-1.7,1.3-3.4,2-5.1c1.9-4.3,3.9-8.5,6.1-12.7c0.7-1.4,1.5-2.8,2.3-4.2c1.1-2.1,2.1-4.2,3.2-6.3c1.5-2.9,3.1-5.7,4-8.9
					c0.3-0.9,0.7-1.7,1.2-2.4c1.3-2.3,2.4-4.7,3.3-7.2C54.4,41.2,54.5,41,54.4,40.7z M48.9,98.2c1-0.5,1.8-1,2.3-2
					c0.2-0.3,0.4-0.6,0.7-0.9c1.2-1.2,2.2-2.7,3-4.2c1.2-2.2,2.4-4.4,3.7-6.5c0.4-0.7,0.8-1.4,1.3-2.1c0.8-1.2,1.7-2.3,2.6-3.5
					c1.3-1.8,2.5-3.6,3.9-5.3c1.8-2.2,3.7-4.4,5.3-6.8c1.2-1.8,2.4-3.7,3.6-5.5c0.4-0.6,0.3-0.9-0.3-1.3c-1.4-1.1-1.8-1-2.8,0.6
					c-0.2,0.3-0.3,0.5-0.5,0.8c-1.3,2-2.4,4.2-3.9,6.1c-2.2,2.8-4.1,5.8-6.3,8.6c-0.6,0.8-1.1,1.6-1.7,2.4c-2.3,3.2-4.1,6.7-6,10.2
					c-1.5,2.7-3,5.4-4.5,8.2C49.1,97.2,48.7,97.6,48.9,98.2z M54,103.8c0.4,0.8,0.8,0.9,1.2,0.3c0.1-0.2,0.3-0.4,0.4-0.6
					c2.1-3.4,4.5-6.6,6.8-9.9c1.9-2.8,3.8-5.6,5.7-8.5c0.6-0.9,1.3-1.8,1.9-2.8c1-1.6,2-3.2,3.3-4.6c1.9-1.9,2.7-4.3,3.6-6.7
					c0-0.1,0-0.3-0.1-0.4c-0.1-0.1-0.3,0-0.4,0c-0.9,0.6-1.2,1.7-1.8,2.5c-2,2.6-4.2,5-5.9,7.8c-0.1,0.2-0.2,0.4-0.4,0.6
					c-1.7,1.6-2.8,3.6-4,5.4c-1.4,2.1-2.9,4.1-4.4,6.1c-2.1,2.7-3.8,5.7-5.7,8.4C53.7,102.4,53.5,103.1,54,103.8z M38.5,50
					c-0.7,0.8-1.4,1.4-1.8,2.3c-2.6,5.7-5.4,11.4-7.6,17.2c-1.7,4.4-3.5,8.7-4.7,13.2c-0.3,1.1-0.5,2.2-1.7,2.8
					c-0.2,0.1-0.3,0.5-0.5,0.7c-0.2,0.4-0.2,0.7,0.1,1c0.2,0.2,0.4,0.4,0.7,0.6c0.7,0.5,1.1,0.4,1.4-0.4c1.5-3.7,3-7.4,4.4-11.2
					c0.7-1.7,1.2-3.4,2.1-5c0.4-0.8,0.7-1.7,0.9-2.6c0.3-1.2,0.6-2.5,1.1-3.7c1.3-3.2,2.6-6.4,3.9-9.7c0.6-1.6,1.2-3.3,1.8-4.9
					C38.7,50.5,38.6,50.4,38.5,50z M71.8,57.5c-0.1,0.1-0.3,0.2-0.3,0.3c-3,4.2-6,8.3-9,12.5c-3.1,4.5-6.1,9-9.1,13.5
					c-2.2,3.3-4.4,6.6-6.9,9.6c-0.6,0.6-0.9,1.4-1.2,2.2c-0.1,0.4-0.1,0.7,0.3,1c0.1,0,0.1,0.1,0.2,0.1c1.5,1,1.6,1.1,2.3-0.4
					c1.1-2.2,2.4-4.4,3.6-6.5c0.9-1.4,1.6-2.9,2.4-4.4c0.7-1.3,1.4-2.5,2.1-3.7c1.6-2.7,3.7-5,5.4-7.5c1.7-2.5,3.5-4.9,5.2-7.4
					c1.8-2.7,3.5-5.5,5.3-8.2c0.1-0.2,0.2-0.4,0.2-0.6c0-0.1,0-0.2-0.1-0.2C72.1,57.5,72,57.5,71.8,57.5z M58.4,109.7
					c0.6-0.2,0.8-0.6,1.2-1c1.7-2.2,3.4-4.4,5-6.7c2-2.9,3.8-6,5.3-9.2c0.5-1.2,0.7-2.5,0.7-3.8c0-0.1-0.1-0.3-0.2-0.3
					c-0.2-0.1-0.5,0-0.6,0.2c-0.2,0.3-0.4,0.6-0.6,1c-0.9,1.5-1.7,3-2.6,4.5c-2.7,4.4-5.5,8.7-8,13.2c-0.3,0.5-0.5,1.1-0.8,1.6
					c-0.1,0.2,0.1,0.4,0.2,0.6C58.1,109.8,58.3,109.7,58.4,109.7z M22.5,83c0.7-1.1,1.1-2.1,1.3-3.1c0.5-2.1,1.4-4,2.2-6
					c0.2-0.6,0.5-1.1,0.7-1.7c1.3-3.1,2.5-6.3,4-9.4c1.5-3.1,2.5-6.4,4.2-9.3c0-0.1,0.1-0.1,0.1-0.2c0.1-0.3,0.1-0.6-0.2-0.8
					c-0.3-0.2-0.6,0-0.8,0.1c-0.4,0.2-0.7,0.5-0.9,1c-1.1,2.8-2.8,5.4-3.5,8.4c-0.4,1.8-1.1,3.5-1.8,5.1c-1.5,3.6-2.9,7.3-4.7,10.8
					c-0.3,0.6-0.5,1.3-0.8,1.9C21.9,80.8,21.9,81.7,22.5,83z M56.7,108.1c0.1-0.1,0.3-0.2,0.4-0.4c0.6-1,1.3-2.1,1.8-3.1
					c0.9-1.7,1.9-3.3,3-4.8c0.4-0.6,0.9-1.2,1.3-1.9c2.3-3.7,4.6-7.5,6.8-11.3c0.2-0.3,0.4-0.7,0.5-1c0.1-0.2,0-0.5-0.1-0.6
					c-0.2-0.2-0.4,0-0.6,0.2c-0.3,0.5-0.5,1.1-0.8,1.6c-2.1,3.6-4.7,6.9-7,10.3c-1.6,2.4-3.5,4.6-5,7c-0.4,0.7-0.8,1.4-1.2,2.2
					c-0.2,0.5-0.1,1,0.2,1.5C56.2,108.1,56.3,108.2,56.7,108.1z M68.7,105.5c0-0.1-0.1-0.2-0.3-0.2c-0.1,0-0.3,0.1-0.4,0.2
					c-0.8,1.2-1.6,2.4-2.4,3.6c-0.1,0.2-0.5,0.5-0.1,0.7c0.1,0.1,0.5,0,0.6-0.2c0.7-0.6,1.3-1.3,1.9-1.9
					C68.5,107.1,68.7,106.4,68.7,105.5z"/>
			</g>
			<g>
				<path d="M104.2,89.3c0.6,1.7,1.1,2.8,2,3.8c0.4,0.5,0.7,1.2,1,1.8c0.4,1,0.7,2,1.2,3c1.1,2.2,1.1,4.5,0.7,6.9
					c-0.2,1.4-0.6,2.6-1.5,3.7c-1.2,1.7-2.2,3.6-3.3,5.4c-0.4,0.6-0.7,1.2-1.2,1.7c-0.6,0.7-1.3,1.2-2.3,1.3
					c-1.8,0.2-3.6,0.4-5.4,0.6c-0.5,0-1.1,0-1.6-0.2c-2.2-0.6-4.3-0.7-6.5,0c-1.4,0.4-2.7,0.1-4-0.3c-0.4-0.1-0.8-0.2-1-0.4
					c-1.3-1-2.8-1.1-4.3-1c-2.1,0.1-3.1-0.9-3-2.9c0.1-1.4,0.2-2.7,0.9-3.9c0.4-0.7,0.5-1.4,0.4-2.2c-0.4-3.1-0.8-6.3-1.1-9.4
					c-0.1-0.7,0-1.5,0-2.3c0.1-1.1,0.3-2.1,0.2-3.2c-0.2-2.4,0.6-4.6,1.2-6.9c0.3-1,0.7-1.9,1.3-2.6c1.1-1.2,1.6-2.7,1.9-4.3
					c0.2-1.3,0.6-2.5,1.3-3.6c0.8-1.2,1.7-1.8,3.2-1.6c0.9,0.1,1.2,0.4,1.6,1.2c0.5,1.2,1.2,2.3,1.8,3.4c0.5,1,1.3,1.8,2.4,2.4
					c2.1,1.2,4.1,2.5,6.1,4c0.7,0.6,1.5,1,2.4,1.1c0.7,0.1,1.3,0.4,1.9,0.7C102.4,86.3,104,87.5,104.2,89.3z M86.3,94.2
					c-0.4,0.1-0.8,0.3-1,0.6c-0.2,0.3-0.3,0.5-0.5,0.8c0,0.2-0.1,0.5-0.1,0.7c-0.5,0.3-0.8,0.7-1,1.3c-0.7,0.6-1.3,1.2-1.3,2.2
					c-0.6,0.3-0.9,0.7-1,1.4c-0.6,0.4-0.8,1-1.2,1.6c-0.6,1-1.1,2.2-1.9,3c-0.8,0.9-1.1,1.9-1.3,3l0,0.1l-0.1-0.1
					c0.4-0.1,0.7-0.3,0.9-0.7c1.2-2,2.4-4,3.6-6c0.1-0.2,0.2-0.4,0.2-0.6c0-0.1-0.1-0.2-0.2-0.4c0.8-0.1,0.9-0.7,1-1.4
					c0.8-0.5,1.4-1.2,1.3-2.2c0.7-0.2,0.8-0.8,1-1.3c0.2-0.2,0.3-0.5,0.1-0.7c0.4-0.1,0.5-0.4,0.5-0.8C85.8,94.8,86,94.5,86.3,94.2
					c0-0.3,0-0.5,0-0.8c0.6-0.3,0.9-0.7,0.8-1.4c0.8-0.1,0.9-0.7,1-1.4c2.1-1.8,3.4-4.1,4.7-6.5c0.1-0.2,0.1-0.4-0.2-0.5
					c-0.1,0-0.3,0-0.4,0.1c-0.2,0.1-0.3,0.3-0.5,0.5c-1.4,1.9-2.5,4.1-3.7,6.1c0,0.1,0.1,0.3,0.1,0.4c-0.7,0.2-0.9,0.8-1,1.4
					c-0.4,0.4-0.7,0.8-0.7,1.4C86.3,93.7,86.2,93.9,86.3,94.2z M103.1,110.6c0.1-0.1,0.4,0.1,0.2-0.3
					C103.2,110.5,103.1,110.6,103.1,110.6l0,0.2L103.1,110.6z M86.6,85.6c0.1-0.3,0.2-0.5,0.3-0.8c0.1-0.3,0.1-0.5-0.1-0.7l0.1,0
					L86.8,84c-0.1,0.2-0.2,0.5-0.3,0.7C86.2,85.2,86.4,85.4,86.6,85.6c-0.6-0.1-1,0.4-1.5,0.6c-0.3,1.2-1.2,2.1-1.9,3
					c-0.6,0.7-1.3,1.3-1.8,2c-1.4,2.2-2.7,4.4-4.2,6.5c-0.5,0.6-0.6,1.4-0.7,2.1c0,0.1,0.1,0.3,0.2,0.3c0.1,0,0.3,0,0.4-0.1
					c0.1,0,0.1-0.1,0.1-0.2c2.4-3.6,4.7-7.2,7.1-10.8c0.4-0.6,0.6-1.2,1-1.8c0.2-0.4,0-0.7-0.2-1C85.8,86.3,86.1,85.8,86.6,85.6z
					 M101.6,113.6c-0.4,0-0.7,0.1-0.9,0.4c-0.1,0.1-0.1,0.3,0,0.4c0.1,0.1,0.3,0.1,0.4,0.1C101.3,114.3,101.6,114,101.6,113.6
					c-0.1-0.1,0-0.1,0-0.2c0,0,0,0-0.1-0.1C101.5,113.5,101.5,113.6,101.6,113.6z M95.7,88.9c0.2-1.2,1.5-1.7,1.7-2.9
					c-0.1,0-0.3,0-0.4,0c-0.6,0.6-1,1.3-1.4,2C95.4,88.4,95.6,88.7,95.7,88.9c-0.5-0.1-1,0-1.1,0.6c-1.6,1.7-2.9,3.7-4.1,5.7
					c-1,1.7-2,3.4-3.2,4.9c-2.9,3.7-5.4,7.7-7.9,11.7c-0.4,0.6-0.7,1.2-1,1.8c-0.2,0.5,0.1,0.8,0.7,0.8c0.4,0,0.7-0.1,1-0.5
					c0.4-0.6,0.8-1.1,1.1-1.7c0.9-1.8,2-3.4,3.2-5c0.6-0.9,1.2-1.7,1.8-2.6c1.6-2.8,3.6-5.3,5-8.1c0.1-0.1,0.2-0.3,0.3-0.4
					c1.5-1.7,2.3-3.7,3.1-5.8c0.1-0.3,0.2-0.6,0-0.9C95.1,89.6,95.3,89.1,95.7,88.9z M101.1,88.1c-0.3-0.7-0.9-1.1-1.5-1.3
					c-0.5-0.2-0.9-0.1-1.2,0.3c-0.8,1.2-1.8,2.3-2.4,3.5c-1.2,2.4-2.6,4.8-4,7.1c-2.4,4-5,7.9-7.6,11.8c-0.2,0.3-0.5,0.6-0.6,0.9
					c-0.7,1.1-1.3,2.2-1.9,3.3c-0.2,0.4,0,0.8,0.5,1c0.5,0.2,0.9,0.1,1.2-0.4c0.7-1.1,1.4-2.3,2.2-3.5c1.4-2.3,2.6-4.6,4.4-6.6
					c1.2-1.3,2.1-2.8,3-4.2c2.1-3.1,4-6.2,6.5-9c0.6-0.7,1.1-1.4,1.6-2.2C101.2,88.6,101.2,88.3,101.1,88.1z M104.1,94.3
					c-0.7-1.4-1.1-1.5-2-0.3c-0.5,0.7-0.9,1.4-1.4,2.1c-0.4,0.6-0.6,1.2-1.1,1.7c-1.5,1.7-2.6,3.7-4,5.5c-1.7,2.3-3.2,4.8-5.1,7
					c-0.5,0.6-1,1.3-1.5,2c-0.6,0.9-1.2,1.8-1.4,2.8c-0.1,0.6,0.1,0.8,0.7,0.8c0.8,0,1.4-0.3,1.9-1c0.8-1.2,1.3-2.6,2.2-3.7
					c2.3-3.1,4.2-6.5,6.8-9.4c0.3-0.3,0.5-0.8,0.7-1.1c1.1-1.4,2.1-3,3.5-4.1C104.7,95.8,104.7,95.5,104.1,94.3z M77,113.7
					c0.1-0.1,0.3-0.1,0.4-0.2c0.3-0.5,0.6-1,1-1.5c2.4-3.8,4.5-7.7,7.2-11.3c1.1-1.5,2.2-3.1,3.2-4.7c1.8-2.9,3.6-5.8,5.6-8.5
					c0.3-0.4,0.6-0.9,0.9-1.3c0.2-0.4,0-0.8-0.4-1.1c-0.5-0.3-0.8-0.2-1.2,0.3c-1.7,2.4-3.4,4.8-5.1,7.2c-0.1,0.2-0.3,0.4-0.4,0.6
					c-2.1,3.5-4.1,7.1-6.2,10.6c-1.7,2.8-3.1,5.7-5.3,8.2c-0.5,0.5-0.4,1.1,0,1.7C76.7,113.6,76.9,113.6,77,113.7z M102.3,91.3
					c-0.2-0.3-0.4-0.5-0.6-0.3c-0.2,0.2-0.4,0.4-0.6,0.6c-1.6,2-3.2,4-4.7,6.1c-2.1,3-3.9,6.1-6.4,8.8c-0.2,0.2-0.3,0.5-0.5,0.8
					c-1.7,2.8-3.4,5.6-5.1,8.3c-0.1,0.2-0.2,0.4,0,0.6c0.2,0.2,0.9,0.3,1.1,0.2c0.2-0.2,0.4-0.5,0.5-0.8c0.5-1.5,1.6-2.7,2.6-3.9
					c1.5-1.8,2.9-3.7,4.2-5.6c1.9-2.9,3.7-5.9,5.9-8.6c0.3-0.4,0.6-0.8,0.9-1.3c0.8-1.4,1.5-2.8,2.7-3.9
					C102.5,91.9,102.4,91.5,102.3,91.3z M88.5,80.4c0-0.2,0-0.3-0.1-0.3c-0.2-0.3-0.5-0.6-0.7-0.9c-0.8-0.8-1-0.7-1.6,0.1
					c-1.8,2.7-3.6,5.5-5.3,8.2c-1.2,1.9-2.3,3.8-3.3,5.7c-0.5,0.9-0.7,1.8-1,2.7c0,0.1,0,0.3,0.1,0.4c0.1,0.1,0.3,0.1,0.4,0
					c0.2-0.1,0.3-0.3,0.4-0.5c2.8-4,6-7.8,8.6-12C86.9,82.6,87.7,81.5,88.5,80.4z M77.7,104.1c0.2-0.2,0.3-0.3,0.5-0.5
					c0.9-1.5,1.8-3,2.8-4.4c1.7-2.6,3.3-5.2,4.9-7.9c1.7-2.8,3-6,5.8-8c0.1,0,0.1-0.1,0.1-0.2c0.2-0.3,0.2-0.6-0.1-0.8
					c-0.3-0.2-0.6-0.5-0.9-0.6c-0.3-0.2-0.6-0.1-0.8,0.2c-0.2,0.2-0.3,0.5-0.5,0.8c-1.5,2.6-3.1,5.2-4.7,7.8
					c-1.4,2.2-2.9,4.4-4.3,6.7c-1,1.6-1.9,3.2-2.9,4.8c-0.4,0.6-0.5,1.2-0.3,1.9C77.3,104,77.5,104,77.7,104.1z M106.1,99.7
					c-0.1-0.2-0.5-0.4-0.7-0.2c-0.5,0.5-1.1,1.1-1.5,1.7c-1.3,1.7-2.6,3.4-3.8,5.1c-0.9,1.3-1.9,2.5-2.7,3.9c-1,1.8-2,3.5-3.5,5
					c-0.1,0.1-0.2,0.3-0.2,0.4c0,0.1,0,0.3,0.1,0.4c0.1,0.1,0.2,0.2,0.4,0.2c0.4,0.1,0.7-0.2,1-0.5c1.9-2.3,4-4.3,5.4-7
					c1.1-2.1,2.4-4.1,4.1-5.7c0.5-0.5,0.9-1,1.4-1.5C106.3,101,106.3,100.4,106.1,99.7z M105.2,97.1c-0.2-0.5-0.8-0.6-1.1-0.2
					c-0.6,1-1.1,2-1.7,2.9c-1.6,2.2-3.2,4.4-4.8,6.6c-0.9,1.2-1.7,2.5-2.6,3.7c-1.1,1.6-2.2,3.3-3.3,4.9c-0.1,0.2-0.2,0.4,0,0.6
					c0.2,0.2,0.4,0.2,0.6,0c1.2-1.3,2.3-2.5,3.1-4.1c1-1.9,2.1-3.9,3.5-5.5c2.2-2.4,3.7-5.4,6.1-7.6C105.5,98,105.4,97.5,105.2,97.1
					z M78.5,89.5c0.1-0.2,0.3-0.3,0.4-0.5c1.9-3.3,4.1-6.3,6.3-9.4c0.3-0.4,0.6-0.9,0.9-1.3c0.3-0.4,0.3-0.9,0.1-1.3
					c-0.1-0.2-0.2-0.4-0.4-0.5c-0.1,0-0.4,0.2-0.5,0.3c-1.4,2.8-3.5,5.1-5.2,7.7c-1.4,1-1.6,2.6-2,4.1c0,0.2,0,0.5,0,0.7
					C78.1,89.3,78.3,89.4,78.5,89.5z M98.1,115.8c0.1-0.1,0.5-0.3,0.6-0.5c0.6-1.2,1.7-2.1,2.4-3.3c1.2-2,2.5-4,4.2-5.6
					c0.7-0.7,1-1.5,1-2.5c0-0.1-0.1-0.3-0.2-0.4c-0.2-0.2-0.4,0-0.6,0.1c-1.4,1.3-2.5,2.8-3.4,4.5c-1.2,2.1-2.5,4.1-4.1,5.9
					c-0.3,0.4-0.6,0.9-0.8,1.3c0,0.1,0.1,0.3,0.1,0.4c0,0,0.1,0,0.2,0C97.7,115.9,97.9,115.9,98.1,115.8z M82.6,79.5
					c0.4-0.5,0.8-1.1,1.2-1.6c0.5-0.8,0.9-1.6,1.3-2.4c0.1-0.2,0.1-0.5-0.1-0.6c-0.2-0.2-0.5-0.3-0.8-0.3c-0.2,0-0.5,0.1-0.6,0.3
					C82.7,76.3,82,77.7,82.6,79.5z"/>
			</g>
			<g>
				<path d="M109.6,94.5c-0.9-1.2-0.9-2.7-0.7-4.1c0.2-1.4-0.2-2.5-1.4-3.4c-1-0.8-1.8-1.9-1.4-3.3c0.1-0.4-0.2-0.7-0.4-1
					c-1.1-2-0.7-2.9,1.6-3.2c1.6-0.2,3.2-0.4,4.7,0.2c0.9,0.4,1.8,0.2,2.7,0c2.4-0.6,4.1,0.6,5.6,2.1c0.3,0.3,0.3,0.7,0.2,1.1
					c-0.3,1-0.1,1.9,0,2.9c0.2,1.5,0.1,2.8-0.7,4.2c-0.4,0.8-0.7,1.7-1,2.5c-0.5,1.5-1.2,2.9-2.4,4.1c-0.4,0.4-0.7,1-1.3,1.1
					c-1.1,0.2-2.1,0.3-3.1,0c-0.3-0.1-0.7-0.4-0.9-0.7C110.6,96.3,109.9,95.5,109.6,94.5z M115.6,81.2c-0.1-0.3-0.3-0.2-0.5-0.2
					c-0.6,0.1-0.9,0.5-0.9,1.1c-0.4,2.7-0.9,5.4-1.3,8.1c-0.3,1.7-0.3,3.5-0.1,5.2c0.1,0.5,0.2,1,0.6,1.4c0.3,0.3,0.7,0.3,1,0.2
					c0.3-0.1,0.5-0.4,0.5-0.7c0-0.1,0-0.3-0.1-0.4c-0.6-2.2-0.6-4.5-0.2-6.8c0.3-2.2,0.7-4.3,1-6.5
					C115.6,82.1,115.7,81.7,115.6,81.2z M116,95.4c0.6-0.9,1.3-1.8,1.1-3.1c-0.4-2.8-0.2-5.6,0.3-8.3c0.1-0.6,0.2-1.2,0.2-1.8
					c0-0.2-0.1-0.5-0.2-0.6c-0.1-0.1-0.4-0.2-0.6-0.2c-0.1,0-0.3,0.2-0.3,0.3c-0.1,0.4-0.2,0.7-0.2,1.1c-0.4,3-0.8,6-1.1,9
					c-0.1,1.1,0,2.1,0.2,3.2c0,0.1,0.1,0.3,0.2,0.4C115.6,95.4,115.8,95.4,116,95.4z M111.2,93.3c0.1,0,0.2,0,0.2-0.1
					c0.1-0.3,0.3-0.6,0.3-0.8c0.1-3.4,0.7-6.7,1.5-10c0.1-0.2,0.1-0.5,0-0.7c-0.1-0.2-0.3-0.4-0.5-0.4c-0.2,0-0.5,0-0.6,0.1
					c-0.2,0.2-0.3,0.5-0.3,0.8c-0.5,3.1-0.9,6.3-1,9.4c0,0.4,0.1,0.9,0.1,1.3C110.9,93.1,111.1,93.2,111.2,93.3z M119,82.7
					c-0.9,1.8-0.9,3.8-1,5.7c0,0.4,0,0.8,0.5,0.9c0.2,0,0.4-0.4,0.6-0.6c0.3-0.5,0.4-1.1,0.3-1.7C119.3,85.5,119.1,84.1,119,82.7z
					 M108.3,86.1c0.1-0.1,0.3-0.2,0.3-0.3c0.1-1.5,0.2-3,0.3-4.4c0-0.2-0.1-0.5-0.4-0.4c-0.2,0-0.4,0.1-0.6,0.2
					c-0.1,0.1-0.2,0.2-0.3,0.4C107.3,83.1,107,84.7,108.3,86.1z M110.1,87.5c0.2-1,0.3-1.8,0.4-2.6c0.2-1.2,0.4-2.4,0.6-3.5
					c0-0.2-0.2-0.4-0.4-0.4c-0.2,0-0.5,0.1-0.6,0.2c-0.1,0.2-0.2,0.6-0.2,0.9c-0.1,1.4-0.2,2.8-0.3,4.2
					C109.6,86.7,109.5,87.1,110.1,87.5z"/>
			</g>
			<g>
				<path d="M130.2,85.9c-0.3,1.1-0.7,2.1-1.4,3.1c-0.3,0.4-0.6,0.8-1.1,1.1c-1.3,0.9-1.7,2-1.3,3.5c0.3,0.9,0.6,1.9,1.3,2.6
					c1.2,1.3,1.2,2.7,0.9,4.4c-0.4,2.4-1,4.7-0.8,7.1c-0.8-0.4-1-1.1-1.1-1.9c-0.5-2.1-0.9-4.1-0.4-6.3c0.4-2-0.5-3.5-1.8-4.8
					c-0.2-0.2-0.8-0.2-0.8-0.7c0-0.4,0.2-0.7,0.4-1c0.3-0.7,0.6-1.4,0.9-2c0.3-0.6,0.8-1.2,1.4-1.4c1.7-0.5,2.5-1.8,3.3-3.2
					C129.9,86.2,130.1,86.1,130.2,85.9z"/>
			</g>
			<g>
				<path d="M130.9,84.1c-0.2,0.4-0.3,0.9-0.5,1.3C130.4,84.9,130.5,84.5,130.9,84.1z"/>
			</g>
			<g>
				<path d="M130.4,85.3c-0.1,0.2-0.2,0.5-0.2,0.7C130.3,85.8,130.4,85.5,130.4,85.3z"/>
			</g>
			<g>
				<path d="M57.6,130.3c0.3-0.7-0.4-1-0.2-1.5c0.1,0,0.3,0,0.4,0c1.6,1.2,3.2,2.5,4.6,4c0.7,0.7,0.7,0.8,0.3,2.1
					c-0.7-1-1.3-1.9-2.2-2.6c-0.3-0.2-0.6-0.4-0.8-0.2c-0.8,0.8-1.4,0.3-2-0.2c-1.8-1.3-3.3-2.9-4.2-4.9c-0.9-2-1.5-4.1-1.9-6.3
					c-0.1-0.3-0.3-0.6,0.2-0.7c0.3-0.1,0.6,0.2,0.7,0.5c0.3,0.4,0.5,0.9,0.7,1.4c0.3,0.9,0.6,1.9,0.9,2.8
					C54.6,126.8,55.8,128.7,57.6,130.3z"/>
			</g>
			<g>
				<path d="M39.4,110c0.7,0.6,0.8,1.3,1,1.9c0.7,2.1,1.6,4.1,2.5,6.1c0.7,1.4,1.3,2.9,2.4,4.1c0.3,0.4,0.6,0.9,0.7,1.4
					c0,0.1-0.1,0.3-0.2,0.4c-0.1,0.1-0.3,0-0.4,0c-0.3-0.2-0.6-0.5-0.8-0.8c-2.6-3.9-4.6-8-5.4-12.6C39.3,110.3,39.3,110.3,39.4,110
					z"/>
			</g>
			<g>
				<path d="M49.9,124c-1-2-1.5-4.1-1.7-6.3c0-0.1,0.1-0.3,0.2-0.4c0.1,0,0.3,0,0.4,0.1c0.3,0.5,0.5,0.9,0.7,1.4
					c0.8,2.4,1.5,4.7,2.2,7.1c0,0.1,0,0.2,0,0.2c-0.1,0.1-0.1,0.3-0.2,0.3c-0.1,0-0.3,0-0.4-0.1C50.6,125.6,50.2,124.8,49.9,124z"/>
			</g>
			<g>
				<path d="M73.2,133.7c-0.5-0.1-0.6-0.5-0.7-0.8c-0.5-2.4-1.9-4.2-3.4-6.1c-0.4-0.5-0.7-1-1-1.5c0-0.1,0-0.3,0.1-0.4
					c0.1-0.1,0.3-0.1,0.4,0c0.9,0.5,1.6,1.4,2.2,2.2c1,1.4,1.7,3,2.3,4.6C73.4,132.4,73.4,133.1,73.2,133.7z"/>
			</g>
			<g>
				<path d="M45,115.3c0.5-0.2,0.7,0,0.9,0.3c1.2,1.9,1.8,3.9,2.2,6.1c0,0.1,0,0.2,0,0.2c-0.1,0.1-0.2,0.3-0.3,0.3
					c-0.1,0-0.3-0.1-0.4-0.1c-0.3-0.7-0.5-1.4-0.7-2.1C46.3,118.3,45.7,116.7,45,115.3z"/>
			</g>
			<g>
				<path d="M60.7,129.7c2.3,0.8,3.5,2.6,4.2,4.7c0,0.1,0,0.3-0.1,0.4c-0.2,0.2-0.5,0-0.6-0.1C63.2,132.9,62,131.3,60.7,129.7z"/>
			</g>
			<g>
				<path d="M35.9,105.5c0.1,0.2,0.2,0.2,0.3,0.3c0.1,0.2,0.2,0.4,0.2,0.6c-0.1-0.1-0.2-0.1-0.2-0.2C36.1,106,36,105.8,35.9,105.5z"
					/>
			</g>
			<g>
				<path d="M38.3,106.7c0.3,0.6,0.7,1.1,0.6,2C38.5,108,38.1,107.4,38.3,106.7L38.3,106.7z"/>
			</g>
			<g>
				<polygon points="38.3,106.8 38.3,106.6 38.3,106.7 				"/>
			</g>
			<g>
				<path d="M100.3,136.7c-0.4,0.3-0.9,0.1-1.3-0.1c-1.7-0.9-2.9-2.3-3.4-4c-0.5-1.6-0.7-3.2-1-4.9c0-0.2,0-0.3,0.2-0.3
					c0.1,0,0.3,0,0.4,0.1c0.2,0.3,0.3,0.7,0.5,1c0.3,1,0.6,2,0.9,3C97.1,133.7,98.4,135.4,100.3,136.7L100.3,136.7z"/>
			</g>
			<g>
				<path d="M94.6,133.8c-0.4-0.2-0.6-0.3-0.7-0.5c-1.1-1.5-1.6-3.3-1.7-5.1c0-0.1,0.1-0.4,0.2-0.4c0.2,0,0.4,0.1,0.6,0.2
					c0.1,0.1,0.2,0.2,0.2,0.4C94,130.1,94.3,131.8,94.6,133.8z"/>
			</g>
			<g>
				<path d="M91.1,131.6c-0.2-0.2-0.3-0.4-0.4-0.5c-0.2-0.5-0.6-1.1,0-1.6c0.1-0.1,0.3-0.1,0.4,0c0.5,0.4,0.6,1,0.4,1.6
					C91.4,131.2,91.3,131.4,91.1,131.6z"/>
			</g>
			<g>
				<path d="M100.3,136.7C100.3,136.7,100.3,136.7,100.3,136.7C100.3,136.7,100.3,136.7,100.3,136.7z"/>
			</g>
			<g>
				<path d="M138.1,57.1c0.4,2.2,0.4,4.4,1.5,6.4c-1.2-1-1.2-1.1-1.7-2.9C137.6,59.5,137.5,58.3,138.1,57.1z"/>
			</g>
			<g>
				<path d="M128.2,33.3c-0.2-0.2,0.2-0.1-0.1-0.1C128,33.2,128.1,33.3,128.2,33.3C128.2,33.2,128.2,33.3,128.2,33.3z"/>
			</g>
			<g>
				<path d="M88.3,16.8c0,0-0.1-0.1-0.1-0.1C88.1,16.8,88.2,16.8,88.3,16.8C88.3,16.7,88.3,16.8,88.3,16.8z"/>
			</g>
			<g>
				<path d="M64.7,64.1c0-0.1-0.1-0.3,0-0.4c1.3-3.3,3.2-6.2,5.3-9c0.1-0.1,0.3-0.1,0.4-0.1c0.1,0,0.1,0.2,0.2,0.3
					c0,0.1-0.1,0.1-0.1,0.2c-1.7,2.8-3.5,5.7-5.2,8.5C65.1,63.9,65,64.1,64.7,64.1z"/>
			</g>
			<g>
				<path d="M55.8,76.9c-0.5-0.7-0.4-1.4,0.3-1.9c0,0-0.1,0-0.1,0c0.2,0.4,0,0.8-0.2,1.2C55.8,76.5,55.7,76.7,55.8,76.9L55.8,76.9z"
					/>
			</g>
			<g>
				<path d="M55.8,77c-0.1,0-0.2,0-0.3,0C55.6,77,55.7,77,55.8,77C55.8,76.9,55.8,77,55.8,77z"/>
			</g>
			<g>
				<path d="M54.4,48L54.4,48C54.5,48,54.4,48.1,54.4,48C54.4,48.1,54.4,48,54.4,48z"/>
			</g>
			<g>
				<path d="M42.3,93.6c-0.1,0.2-0.2,0.5-0.3,0.7C42.1,94.1,42.2,93.9,42.3,93.6z"/>
			</g>
		</g>
		<g>
			<line x1="85.9" y1="19.4" x2="124.4" y2="28.9"/>
		</g>
		<g>
			<line x1="77" y1="89.6" x2="104.5" y2="97.9"/>
		</g>
		<g>
			<line x1="78.4" y1="99.3" x2="105.9" y2="107.7"/>
		</g>
		<g>
			<line x1="86.9" y1="59" x2="121.8" y2="67.4"/>
		</g>
		<g>
			<line x1="43.9" y1="47.2" x2="67.9" y2="55.6"/>
		</g>
		<g>
			<line x1="72.1" y1="27.1" x2="124.4" y2="41"/>
		</g>
		<g>
			<line x1="77" y1="42.5" x2="124.4" y2="52"/>
		</g>
		<g>
			<line x1="36.1" y1="52.6" x2="77" y2="68.3"/>
		</g>
		<g>
			<line x1="27.8" y1="64.9" x2="66.3" y2="74.5"/>
		</g>
		<g>
			<line x1="23.6" y1="77.8" x2="69.6" y2="90.7"/>
		</g>
	</g>
	<g>
		<g>
			<path d="M321.6,33.8c-0.2,1.2-0.7,2.2-1.2,3.2c-1.6,3-3.2,5.9-4.7,8.9c-0.4,0.8-0.3,1.1,0.5,1.5c1.4,0.8,2.9,1.5,4.1,2.6
				c0.6,0.5,1.3,0.6,2,0.8c2.2,0.5,4.4,1,6.7,1.4c1.6,0.3,2.9,1,4.1,2c0.7,0.6,1.3,1.3,2,1.9c1.1,1,2.3,1.7,3.9,1.6
				c0.2,0,0.4,0,0.5,0c2.7,1,5.3,2.4,7.1,4.7c0.2,1.6,1.5,2.6,2.2,4c1.3,2.7,2.2,5.6,1.7,8.7c-0.7,5.1-1,10.3-0.8,15.5
				c0,0.2,0,0.4,0,0.5c0.5,3.4-1.1,6.2-2.9,8.8c-0.5,0.7-1.2,1.1-1.8,1.6c-1.4,1-2.8,2.1-4,3.2c-2.5,2.3-5.5,4.2-7.8,6.8
				c-1.6,1.8-3.3,3.4-5.1,5c-0.8,0.7-1.5,1.6-2,2.6c-0.4,0.7-1,1.3-1.8,1.6c-3,1.1-5.4,3.1-7.4,5.5c-2,2.3-4.4,3.7-7,4.9
				c-2.2,0.9-4.3,2-6.3,3.2c-1,0.6-2.1,1-3.3,1.3c-1.9,0.5-3.6,1.2-5.1,2.5c-1.7,1.4-3.6,2.1-5.7,2.3c-2.1,0.2-4,1-5.9,2
				c-3.7,1.9-7.2,4.2-11.1,5.8c-1.7,0.7-3.1,1.9-4.5,3c-2.1,1.7-4.4,3.2-6.5,5c-2.9,2.5-6.4,4.1-10.2,5c-1.8,0.4-3.5,0.8-5.3,1.3
				c-1.3,0.3-2.5,0.9-3.8,1.4c-1.6,0.7-3,1.6-4.5,2.5c-1.8,1-3.7,0.8-5.6,0.2c-1.3-0.4-2.6-0.8-3.9-1.2c-0.7-0.2-1.4-0.2-2.1,0
				c-1.3,0.4-2.7,0.6-3.9,1.1c-1.7,0.6-3.2,0.5-4.7-0.3c-1.1-0.6-2.3-1-3.6-1.1c-2.3-0.2-4.4-0.8-5.9-2.9c-0.8-1.1-2-1.7-3.4-2.1
				c-1.6-0.4-3.1-1-4.6-1.6c-2-0.8-4-1.8-5.5-3.4c-0.8-0.9-1.9-1.3-3.1-1.6c-2.7-0.6-5.3-1.2-8-1.4c-1.7-0.1-3.2-0.6-4.5-1.7
				c-0.6-0.5-1.2-0.9-1.9-0.9c-1.6,0-2.6-1-3.2-2.2c-0.6-1.2-1.4-2-2.7-2.5c-1.6-0.7-3-1.7-4.4-2.6c-1.8-1.2-3.1-2.8-3.9-4.8
				c-0.7-1.7-1.7-3.2-2.9-4.5c-1.1-1.2-1.9-2.6-2.1-4.3c-0.3-2.7-0.3-5,0.1-7.7c0.4-2.8,0.7-5.6,1.5-8.3c0.4-1.3,0.1-2.5-0.3-3.8
				c-0.5-1.5-0.4-3.1-0.1-4.6c0.3-1.2,0.7-2.5,0.5-3.8c-0.1-0.6,0.2-1.1,0.6-1.5c0.5-0.7,1.2-1.4,1.7-2.1c1.1-1.4,2.4-2.7,2.7-4.6
				c0.1-0.3,0.3-0.7,0.5-1c2.5-3.5,4.8-7,8.4-9.5c3-2.1,6-4.4,9-6.7c1.2-0.9,2.6-1.6,4.1-2c1.7-0.4,3.3-1,5-0.6
				c2.8-0.6,5.6-0.3,8.4-0.5c0.7,0,1.4-0.2,2.1-0.3c1.9-0.4,3.8-0.4,5.6,0.3c1.3,0.5,2.7,0.3,4-0.1c3.8-1.3,7.5-2.6,11.3-3.9
				c1-0.4,2-0.8,3.1-1.1c1.9-0.6,3.7-1.5,5.5-2.4c2.6-1.4,5.3-2.7,8.1-3.9c1.9-0.8,3.7-1.9,5.6-2.9c2.9-1.6,5.9-2.9,8.9-4.1
				c1.2-0.5,2.4-0.9,3.6-1.1c1.1-0.2,2.2-0.7,3.3-1.2c2-0.9,3.9-1.9,5.9-2.9c1.2-0.6,2.4-0.7,3.7-0.2c1.2,0.4,2.4,0.7,3.7,1
				c1.4,0.3,2.9,0.3,4.3,0c1.6-0.4,3.3-0.5,4.9-0.2c2.5,0.5,4.9-0.1,7.1-1.1c0.9-0.4,1.8-0.7,2.8-0.7c2.9,0,5.8,0,8.7-0.7
				c0.6-0.1,1.2-0.1,1.9,0c0.8,0.1,1.6,0.2,2.4,0.2c1.4,0,2.7,0,4,0.5c1.1,0.5,2,0.1,2.8-0.9c2.8-3.8,5.7-7.6,7.8-11.8
				C320.9,33.9,321.1,33.7,321.6,33.8z M261.4,86.4c-0.2,0-0.4,0-0.6-0.1C261.1,86.3,261.3,86.3,261.4,86.4c-0.2-0.1-0.2-0.1,0-0.2
				C261.4,86.2,261.4,86.3,261.4,86.4z M214.7,81.6c-0.2,0.3-0.4,0.7-0.5,1.1c-0.4,0.6-0.3,1.2,0,1.7c-1.2-0.1-1.3,0-1.4,1.3
				c-2.6,1.7-3.6,4.5-4.9,7.2c0,0.1,0.1,0.4,0.2,0.4c0.1,0,0.4,0,0.5-0.1c1.5-2.4,3.2-4.8,4.1-7.5c0.5-0.4,1-0.8,1.4-1.3
				c-0.2-0.6,0.4-1.2-0.1-1.8C214.5,82.3,214.6,82,214.7,81.6c0.3,0.1,0.6,0,0.8-0.4c0.4-0.5,0.5-1,0.1-1.5c0.5-0.1,0.8-0.3,0.7-0.9
				c0.4-0.1,0.7-0.2,1.1-0.2c0.2-0.4,0,0.1,0,0c-0.4-0.1-0.7,0-1,0.3c-0.2,0.3-0.5,0.6-0.7,0.9c0,0.5-0.1,1-0.1,1.5
				C215.2,81.2,214.9,81.3,214.7,81.6z M190.8,81.6C190.9,81.5,190.9,81.5,190.8,81.6C190.9,81.5,190.8,81.6,190.8,81.6l-0.1,0.2
				L190.8,81.6z M240.4,153c0.1-0.1,0.5,0,0.3-0.3C240.5,152.8,240.5,152.9,240.4,153l0.1,0.2L240.4,153z M218.2,76.3
				c0.3-0.5,0.3-1,0.2-1.5c0.4,0,0.8-0.2,1,0c0.5,0.3,0.2,0.8,0,1.2c-0.6,1.3-1.3,2.6-2,3.9c-1.9,3.3-3.8,6.6-5.7,9.9
				c-0.5,0.9-1,1.9-1.5,2.9c-0.2,0.5,0,1,0.5,1c1.4,0.2,2.7,0.3,4.1,0.4c4.4,0.4,8.9,0.9,13.3,1.3c1.6,0.1,3.3,0.1,4.9,0.2
				c0.8,0,1.4-0.2,1.7-1.1c1-2.7,2.4-5.3,4-7.8c0.6-0.9,0.5-1.1-0.2-1.9c-0.5-0.6-1.1-1.2-1.4-2c-0.4-0.9-0.2-1.5,0.8-1.5
				c1.3-0.1,2.5-0.4,3.8-0.4c1.3,0.1,1.3,0,1.8-1.8c-0.8-0.6-1.7-0.7-2.6-0.7c-1.5-0.1-2.9-0.1-4.4-0.1c-2.3,0-4.5,0.2-6.8-0.4
				c-0.8-0.2-2.2,0.4-2-1.4c0-0.1-0.6-0.4-0.9-0.5c-0.5-0.2-1.1-0.3-1.5-0.7c-0.4-0.3-1.2-0.1-1.1-1c1.5,0.1,2.9,0.2,4.4,0.2
				c1.1,0,2.4,0.6,3.1-0.9c0-0.1,0.3-0.1,0.5-0.1c1.8,0,3.6-0.2,5.4,0.3c2,0.5,4.1,0.9,6.1,1.2c1.3,0.2,1.6,0.1,2.4-1.2
				c0.8-1.4,1.6-2.8,2.5-4.2c1.7-2.7,3.4-5.4,5-8.1c0.4-0.7,0.4-0.8-0.4-1.4c-0.3-0.2-0.6-0.3-0.6-0.8c0-0.4-0.1-0.7,0-1.1
				c0.2-0.5,0.7-0.5,1.1-0.5c1.4,0.1,2.5-0.3,3.2-1.6c0.1-0.2,0.2-0.6,0.1-0.7c-0.1-0.2-0.5-0.2-0.7-0.2c-2.6,0.9-5.2,1.6-7.7,2.7
				c-3.2,1.4-6.2,3-9.3,4.5c-0.7,0.4-1.6,0.4-2.2,1.1c-0.9,1.1-2.2,1.5-3.4,2.2c-3.4,1.9-7.2,3.1-10.8,4.5c-3.1,1.2-6.4,2.2-9.5,3.2
				c-1.6,0.5-3.2,0.8-4.8,0c-1.9-0.9-3.8-0.9-5.8-0.5c-0.4,0.1-0.9,0.2-1.3,0.2c-3-0.1-6,0.3-9,0.3c-2.8,0-5.1,1-7.4,2.4
				c-1.6,1-3,2.3-4.5,3.5c-3,2.4-5.9,4.8-9,7c-1.9,1.4-3.4,3.3-5.1,4.9c-0.3,0.2-0.5,0.6-0.5,0.9c-0.2,1.3-1.1,2.3-1.7,3.3
				c-0.2,0.4-0.6,0.8-0.7,1.2c-0.1,2.1-1.1,3.9-1,6.1c0.1,1,0.3,1.7,1,2.3c0.4,0.3,0.7,0.6,1,0.9c1.4,1.1,2.4,2.4,2.8,4.2
				c0.2,1.2,0.8,2.4,1.6,3.4c2.1,2.5,4.5,4.7,7.5,6.2c2.6,1.3,5,3,7,5.1c0.8,0.8,1.6,1.5,2.6,2c3.7,1.7,7,3.9,9.8,6.8
				c1.2,1.3,2.6,2.2,4.3,2.8c1.7,0.6,3.4,1.3,5.2,1.8c1.6,0.4,3.1,0.9,4.8,0.8c1.1-0.1,2.3,0.2,3.1,0.9c1.1,1,2.3,1.2,3.5,1.2
				c1.8,0.1,3.5,0.6,4.9,1.4c1.3,0.7,2.5,1,3.9,0.9c0.3,0,0.6,0,0.8,0.1c2.5,0.7,5,0.3,7.6-0.1c1-0.2,2-0.4,2.8-1
				c0.9-0.7,1.9-1,3-1.1c1-0.1,1.7-0.4,2.5-1c1.2-1,2.6-1.7,4.2-1.8c1-0.1,1.8-0.5,2.1-1.5c0.4-1.2,1.3-1.9,2.4-2.4
				c1.3-0.5,2.4-1.2,3.5-2c1.2-0.9,2.5-1.4,4-1.7c2.2-0.6,4.5-0.7,6.8-0.4c2,0.3,3.8,0,5.6-0.8c3.9-1.7,7.8-3.4,11.5-5.6
				c4.2-2.6,8.3-5.2,12.5-7.8c1.7-1.1,3.3-2.2,4.5-3.9c0.9-1.3,1.9-2.6,3.4-3.5c0.2-0.1,0.4-0.4,0.2-0.7c-0.1-0.1-0.3-0.3-0.4-0.3
				c-1.3-0.2-2.5-0.2-3.8-0.4c-4.1-0.8-8.2-1.4-12.3-2.1c-1.3-0.2-1.5-0.1-2.1,1.1c-1.3,3-2.7,5.9-3.7,9.1c-0.2,0.6-0.2,1.4-1,1.7
				c-0.6-1.2,0.6-2.2,0.2-3.3c-0.8,0.4-0.9,1.1-1.1,1.8c-0.2,0.6-0.5,1.2-1.2,1.4l0,0c1.3-3.8,2.6-7.5,3.9-11.3
				c0.1-0.2,0.1-0.3,0.1-0.5c0.1-0.5,0-0.9-0.6-1c-0.6-0.1-1.2-0.3-1.9-0.3c-2.1-0.1-4.2-0.4-6.2-0.7c-2.1-0.4-4.3-0.5-6.5-0.5
				c-1.5,0-3.1-0.1-4.6-0.2c-1.8-0.2-1.8-0.2-2.4,1.4c-1.9,5.1-4.1,10.1-6.4,15c-1.1,2.4-1.5,2.5,1.7,3c5.2,0.9,10.3,2.2,15.5,2.6
				c0.2,0,0.3,0.1,0.4,0.3c0,0,0,0.2,0,0.3c0,0.1-0.1,0.2-0.1,0.2c-0.3,0.3-0.7,0.2-1,0.2c-1.6-0.2-3.3-0.4-4.8-0.7
				c-3.8-0.8-7.8-0.8-11.6-1.1c-0.6,0-1.1,0-1.5,0.5c-0.2,0.3-0.2,0.8,0.2,0.9c1.6,0.2,3.2,0.5,4.8,0.6c3.1,0.2,6.2,0.8,9.4,1.3
				c-0.1,0.5-0.4,0.8-0.8,0.8c-1.1,0-2.2,0-3.3-0.1c-3.1-0.3-6.1-0.6-9.2-0.9c-0.6-0.1-1.3-0.1-1.9-0.1c-0.6,0-1,0.3-1.3,0.8
				c-0.2,0.4-0.3,0.9-0.4,1.3l0.1-0.1c0-0.2,0-0.4-0.1-0.5c-0.3-0.5,0.3-1.5-0.7-1.5c-0.6,0-0.8,0.7-1,1.1c-0.4,0.8-0.8,1.6-1.3,2.4
				c-0.1,0.2-0.2,0.5-0.4,0.7c-0.2,0.4-0.4,0.9-0.9,0.7c-0.4-0.2-0.1-0.6,0-1c0.4-0.9,0.8-1.8,1.2-2.8c0.2-0.6,0.5-1.2,0.3-1.9
				c-0.8-0.5-1.7-0.5-2.6-0.7c-2.6-0.5-5.2-0.9-7.8-1.3c-2.4-0.4-4.9-0.6-7.3-0.9c-3.3-0.5-3.4-0.5-4.5,2.6c-0.7,1.9-1.9,3.4-3,5.6
				c-0.2-1.5,0.4-2.2,0.7-3c0.7-1.8,1.5-3.5,2.2-5.3c0-0.1-0.1-0.4-0.2-0.4c-0.1,0-0.4,0-0.5,0.1c-0.3,0.4-0.6,0.9-0.8,1.4
				c-1.4,3-3.1,6-3.7,9.3c-0.2,1.1-0.8,1.8-1.9,2.1c-0.5,0.2-1.3-0.3-1.2-0.8c0.4-1.7,0.3-3.4,1.1-5c1.1-2,1.9-4.1,2.8-6.2
				c0.2-0.4,0.3-0.8,0.5-1.3c0.1-0.3-0.1-0.6-0.3-0.6c-0.6-0.2-1.2-0.4-1.8-0.5c-6.5-0.9-12.9-1.9-19.4-2.8c-1-0.1-2-0.8-2.9-0.2
				c-0.9,0.5-1.1,1.6-1.7,2.4c-0.7,1.1-1.3,2.2-2.3,3c-0.1,0.1-0.3,0-0.4-0.1c0,0,0-0.2,0-0.3c0.1-0.3,0.2-0.5,0.3-0.8
				c0.3-0.5,0.5-1,0.1-1.6c0.1,0,0.2,0.1,0.3,0.1c1.3-0.5,1.7-1.6,2.1-2.8c0,0-0.1-0.2-0.1-0.2c-0.2,0-0.4-0.1-0.5,0
				c-0.8,0.8-1,2-1.7,3c-0.2,0.5-0.4,1.1-0.1,1.6c-0.5-0.3-0.9,0-1.3,0.1c-0.4,0.1-0.8-0.1-0.6-0.6c0.5-1.3,1-2.5,1.6-3.8
				c0.3-0.7,0.1-1.1-0.6-1.2c-0.6-0.1-1.2-0.2-1.9-0.3c-2.8-0.4-5.6-0.8-8.4-1.2c-0.3,0-0.8-0.1-0.8-0.7c0.7-0.1,1.4-0.2,2.1-0.2
				c0.6,0,1.3-0.1,1.9-0.1c0.7,0,1.5,0,2.2,0c0.6,0,1.3,0.2,2.2-0.3c-4.1-1.1-8.1-0.9-11.9-1.7c1.2-0.1,2.4-0.2,3.5-0.1
				c4.2,0.2,8.3,0.4,12.5,0.7c1.4,0.1,2.2-0.3,2.8-1.5c2-3.6,4-7.1,6-10.7c0.7-1.2,1.3-2.4,1.8-3.6c0.4-0.7,0.1-1.1-0.8-1.3
				c-0.2,0-0.4,0-0.5-0.1c-4-0.7-8.1-0.6-12.2-1c-2.8-0.3-2.9-0.2-5.3,1.3l0,0.1c0.1-0.1,0.2-0.1,0.2-0.2c0.1-0.3,0.2-0.6,0.1-0.8
				c-0.2-0.3-0.5-0.1-0.7,0.1c-0.8,0.9-1.6,1.8-2.2,2.7c-1.8,2.9-4.1,5.6-5.6,8.7c-0.2,0.4-0.5,0.8-0.9,0.9c-0.1,0-0.3,0-0.5-0.1
				c-0.1,0-0.2-0.1-0.1-0.2c0.1-0.4,0.1-0.9,0.3-1.3c0.4-0.9,0.9-1.8,1.3-2.7c0.2-0.4,0.6-0.9,0.2-1.2c-0.8-0.8-0.3-1.5,0.1-2.2
				c0.8-1.5,1.6-3.1,2.4-4.6c0.3-0.6,0.1-1.1-0.6-1.2c-0.6-0.1-1.3-0.1-1.9-0.1c-0.3,0-0.6,0-0.8,0c-0.3-0.1-0.8,0.2-0.7-0.4
				c0.8-0.4,1.6-0.3,2.4-0.3c0.7,0,1.5,0,2.2,0c0.5,0,0.9-0.2,1-0.7c0.1-0.6,0.2-1,0.8-1.2c0.5-0.2,0.8-0.7,1.2-1.1
				c1.9-2.4,3.8-4.9,5.6-7.4c0.9-1.2,1.7-2.6,2.5-3.9c0.2-0.3,0-0.7-0.4-0.8c-0.5-0.1-1.1-0.2-1.6-0.3c-0.5-0.1-0.4-0.4,0-1
				c0.1-0.1,0.3-0.2,0.4-0.4l0,0.2l0-0.2c0-0.1,0-0.2,0-0.3c0.5-0.4,3-1.4,3.6-1.4c2.9,0.3,5.7,0.8,8.6,1.4c0.2,0.1,0.3,0.4,0.5,0.6
				l0,0c-1-0.1-1.8,0.2-2,1.3c-0.1,0.3-0.2,0.5-0.5,0.5c-0.4,0-0.9,0.1-1.3,0c-1.1-0.2-1.9,0.3-2.5,1.2c-0.1,0.2-0.4,0.4-0.5,0.6
				c-0.1-0.5-0.2-0.9-0.3-1.4c0.1,0,0.1,0.1,0.2,0.1c-0.1,0-0.1-0.1-0.2-0.1c-0.3,0.7-0.5,1.3-0.8,2c-0.6,0.2-0.8,0.6-1.2,1.1
				c-2.2,2.8-4.1,5.7-5.9,8.8c-0.2,0.3-0.1,0.5,0.2,0.7c0.3,0.1,0.5-0.1,0.6-0.3l-0.1,0c2.3,1.5,4.8,1.5,7.3,1.1
				c1-0.2,2-0.3,2.9-0.3c1.7,0,3.4,0.1,5.1,0.5c2,0.4,3.3-0.2,4.2-2c0.8-1.5,1.7-3,2.6-4.4c1.5-2.4,3-4.7,4.5-7.1
				c0.4-0.7,0.9-0.4,1.2,0.1l-0.2-0.1l0.1,0.1c1-1.8,1.9-3.6,2.9-5.4c0.1-0.2,0.2-0.6,0.5-0.3c0.1,0.1-0.1,0.5-0.1,0.8
				C218.4,75.3,218.4,75.8,218.2,76.3l-0.1,0L218.2,76.3z M242.3,146.8c0.2-0.1,0.6-0.2,0.7-0.4c0.1-0.2,0.1-0.7,0.1-0.7
				c-0.4-0.1-0.2,0.3-0.3,0.4C242.5,146.3,242.4,146.6,242.3,146.8c0,0.3,0,0.6,0,0.9c0,0.2,0.1,0.4,0.2,0.3
				c0.1-0.1,0.2-0.3,0.1-0.5C242.5,147.2,242.4,147,242.3,146.8z M293.1,62.9c-0.7,0.4-1.5,0.3-1.9,1.2c0.8,0.3,1.4-0.1,2-0.5
				C293.2,63.5,293.1,63.1,293.1,62.9c0.1,0.1,0.3,0.1,0.4,0.2c0,0,0.1-0.1,0.2-0.1C293.5,62.9,293.3,62.9,293.1,62.9z M270.1,78.6
				c0.8,0.1,1.6,0.3,2.1-0.5c0.1-0.1,0.1-0.3,0.1-0.5c0,0-0.1-0.1-0.2-0.1C271.4,77.7,270.4,77.5,270.1,78.6
				c-0.8-0.1-1.7-0.2-2.5,0.4C268.5,78.8,269.3,78.7,270.1,78.6z M292.2,102.7c-1.1,0.1-2.1-0.5-3.5,0
				C290.1,102.7,291.1,102.7,292.2,102.7c0.4,0.4,0.8,0.7,1.4,0.7c1.4,0,2.8,0,4.2,0c-1-0.3-2-0.3-2.9-0.4
				C293.9,102.9,293,103.3,292.2,102.7z M244.6,147.9c0.1-0.1,0.4-0.2,0.4-0.3c1.2-2.3,1.3-4.8,1.4-7.4c0-0.4-0.3-0.7-0.7-0.7
				c-0.4,0-0.7,0.2-0.7,0.6c0,0.5-0.1,1.1,0,1.6C245.4,143.9,245.1,145.9,244.6,147.9c-0.2,0.8-0.2,1.6,0,2.4
				c-0.5-0.1-0.8,0.2-1.1,0.6c-1.2,2.3-2.5,4.6-3.7,6.9c-0.1,0.3-0.2,0.7-0.7,0.5c-0.1-0.8,0.6-1.6,0.3-2.4l0.1,0.1
				c-0.6-0.7-0.5-1.5-0.3-2.3c0.5-2,1.1-4,1.6-6.1c0.3-1.2,0.5-2.5,0.8-3.7c0.1-0.4-0.1-0.7-0.4-0.9c-0.3-0.2-0.7-0.1-1,0.1
				c-1.3,0.6-1.9,1.6-2,3c-0.2,2.7-1.1,5.3-2.1,7.9c-0.1,0.4-0.2,0.9-0.8,0.9c-0.2-0.6,0-1.1,0.1-1.6c0.3-1.4,0.6-2.8,0.9-4.3
				c0.6-3.2,0.5-3.2-2.7-2.7c-1.3,0.2-2.6,0.5-3.8-0.1c-1.8-0.8-3.7-0.9-5.6-0.3c-0.4,0.1-0.9,0.1-1.4,0.1c-0.9-0.1-1.3,0.4-1.6,1.1
				c-0.9,2.1-1.6,4.3-2.2,6.4c-0.3,0.9-0.6,1.7-0.9,2.6c-0.3,0.9-0.3,1.9-1.1,2.6c-0.2-0.3-0.3-0.6-0.5-0.9
				c-0.2,0.2-0.4,0.4-0.5,0.6c-0.2,0.4-0.3,0.9-0.4,1.3c-1.7-1.5-1.7-1.5-1.5-3.3c0.2-1.4,0.4-2.7,0.6-4c0.4-2.9,1.2-5.7,2-8.5
				c0.1-0.3,0.3-0.7-0.1-1c-0.3-0.2-1.2-0.3-1.6-0.1c-0.3,0.2-0.4,0.5-0.6,0.9c-1.4,4.5-3,9-3.9,13.6c-0.1,0.4-0.1,1-0.6,1.3
				c-0.1-1.7,0-3.2,0.2-4.8c0.5-2.7,1.2-5.3,2.1-7.9c0.3-0.8,0.6-1.5,0.8-2.3c0.3-1,0.2-1.6-0.3-1.6c-0.8,0-0.8,0.6-0.9,1.1
				c0,0.1,0,0.2-0.1,0.3c-0.9,3.2-1.8,6.5-2.7,9.7c-0.2,0.7-0.5,1.5-0.9,2.5c-0.7-1.2-0.4-2-0.3-2.9c0.5-3.4,1.6-6.7,2.4-10
				l-0.1,0.1c0.2-0.2,0.4-0.4,0.5-0.6c0.5-1,0.4-1.4-0.6-1.5c-0.6,0-1.3,0-1.9,0c-0.8,0-1.4,0.4-1.6,1.2c-0.3,1.1-0.6,2.3-1,3.4
				c-0.3,0.9-0.5,1.9-1.3,2.9c-0.4-1.3,0-2.4,0.1-3.4c0.1-1.3,1.1-2.5,0.7-3.9c-1.3-0.4-2.6-0.8-3.9-1.2c-0.3-0.1-0.7-0.1-1.1-0.2
				c-1.4-0.4-2.7-0.9-4-1.7c-0.7-0.4-1.4-1.4-2.1-1.1c-1,0.4-0.5,1.6-0.5,2.4c-0.1,1.1,0,2.2,0.1,3.3c0,0.7,0.1,1.5-0.2,2.2l0.1,0
				c-1-2.8-1.4-5.6-0.9-8.5c0.2-1-0.9-2.4-1.8-2.2c-0.8,0.2-0.4,1.1-0.4,1.6c0,1,0.2,2,0.2,3c0,1.9,0,3.7,0,5.6
				c-0.2-0.1-0.4-0.2-0.5-0.3c-0.7-3.5-1.3-6.9-1.3-10.5c0-0.5,0.1-1.1-0.2-1.6c-0.2-0.3-0.5-0.5-0.9-0.5c-0.5,0-0.5,0.4-0.6,0.7
				c-0.1,2,0,4-0.5,5.9c-0.1,0.4,0,0.9,0,1.4c0.4,3.1,0.7,6.3,1.7,9.3l0-0.1c-0.9,0.1-1-0.6-1.3-1.1c-1.7-4.3-2.3-8.7-1.8-13.3
				c0.1-1.2,0.2-2.3,0.3-3.5c0-0.7-0.4-1.2-1-1.5c-0.8-0.5-1.5-0.3-1.5,0.7c0,2.3-0.2,4.5-0.4,6.8c-0.4,4.8,0.7,9.1,3.3,13.2
				c0.8,1.3,1.7,2.1,3.2,2.1c2,0,3.7,0.6,5.4,1.6c1,0.5,1.5,0.3,1.6-0.9c0.2-1.4,0.2-2.9,0.7-4.3c0.1-0.4,0.1-0.9,0.9-0.8
				c-0.1,0.6-0.1,1.1-0.2,1.6c-0.4,1.9-0.1,3.8-0.7,5.6c0,0.1,0.2,0.3,0.3,0.4c0.1,0,0.4,0,0.5-0.1c0.5-0.8,0.8-1.6,0.9-2.5
				c0.1-0.9,0.3-1.8,0.6-2.7c0-0.1,0.3-0.2,0.4-0.2c0.1,0,0.3,0.2,0.3,0.3c0,0.5,0,1.1,0,1.6c0,0.4-0.1,0.9,0.1,1
				c1.2,0.8,1,2,0.9,3.2c-0.1,0.9,0.3,1.3,1.1,1.7c1.8,0.8,3.4,2,5.3,2.7c0.8,0.3,1.6,0.9,2.3,1.5c0.8,0.7,1.6,1,2.7,1.2
				c1.8,0.2,3.6,0.6,5.1,1.7c0.6,0.5,1.3,0.5,2.1,0.3c0.8-0.1,1.6-0.3,2.4-0.4c0.8-0.1,1.1-0.4,1.2-1.2c0.1-0.4,0.2-0.9,0.3-1.3
				c0.6-2.7,2.2-4.7,4.3-6.4c0.1-0.1,0.3-0.2,0.5-0.2c0.3-0.1-0.1-0.1,0.1,0.2c0.3,0.2,0.1-0.1-0.1,0.2c-0.1,0.2-0.4,0.4-0.5,0.6
				l0.1,0.1l-0.1-0.2c0.6,0.5,1.2-0.1,1.8,0.2c0.1,0.5-0.3,0.8-0.6,1.1c-0.7,1-1.4,1.9-2,2.9c-0.2,0.3-0.5,0.8,0,1.2
				c1.4-1.5,2.7-3.2,5.3-3.5c-1.4,1.2-2.6,2.4-3.5,3.7c-0.6,0.9-0.7,1.7-0.2,1.9c0.8,0.4,1.1-0.4,1.6-0.7c0.6-0.4,1.1-1.2,2.2-1
				c-0.3,0.4-0.6,0.8-0.8,1.1c-0.2,0.3-0.6,0.6-0.2,0.9c0.2,0.2,0.7,0.3,1,0.3c1,0,1.9-0.3,2.9-0.7c2.5-1,4.9-2.3,7.7-2.5
				c0.6,0,1.2-0.4,1.8-0.6c0.8-0.3,1.5-0.5,2.3-0.8c4.4-1.6,8.7-3.1,12.8-5.4c2.2-1.3,4.1-3,6.2-4.4c1.8-1.3,3-2.9,3.7-4.9
				c1.3-3.7,2.4-7.4,3.3-11.2c0.1-0.5,0.1-1.1,0.1-1.6c0-0.2-0.2-0.5-0.4-0.6c-0.2-0.1-0.6,0-0.8,0.2c-0.3,0.2-0.5,0.5-0.6,0.9
				c-0.1,0.5-0.2,1.1-0.2,1.6c-0.3,3.4-1.2,6.6-3,9.5c-0.6,0.9-1,2-1.4,2.9l0,0c-0.1-0.4-0.1-0.7-0.2-1.1c-0.7-1.7-0.2-3.3,0.3-5
				c0.6-2,0.9-4.1,1.2-6.1c0.2-1.5-0.1-1.9-1.7-2.1c-1.2-0.1-2.4-0.3-3.5-0.3c-2.7,0-5.2,0.6-7.4,2.3c-0.5,0.4-1.1,0.7-1.7,0.9
				c-0.6,0.3-1.6-0.1-1.9,0.7c-0.2,0.6-0.1,1.4-0.2,2.2c0,0.5,0,1.1-0.2,1.6c-1,3.8-2.1,7.5-3.7,11.1c-0.4,0.8-0.7,1.7-1.1,2.5
				c-0.3,0.7-0.6,1.5-1.1,2.2c-0.4,0.6-0.4,1.5-1.2,2c0-0.4-0.1-0.5,0-0.7c1-2.9,2-5.8,3-8.7c0.7-2.1,1.4-4.1,2.1-6.2
				c0.4-1.5,0.8-3,0.8-4.5c0-0.3,0-0.8-0.4-0.8c-0.2,0-0.5,0.2-0.7,0.3c-0.1,0.1-0.2,0.3-0.3,0.4c-1.2,1.2-1.8,2.6-1.7,4.3
				c0.1,2.1-0.4,4.2-1.1,6.1c-0.7,1.9-1.5,3.7-2.3,5.5c-0.3,0.6-0.2,1.3-0.9,1.8c-0.2-1,0.2-1.8,0.4-2.5c0.1-0.8,0.5-1.6,0.7-2.3
				C244.5,149.5,244.9,148.7,244.6,147.9z M190,83.5c-1.1-0.1-1.5,0.8-2.1,1.5c-1.4,1.6-2.6,3.2-3.9,4.8c-0.4,0.5-0.7,1.1-1,1.6
				c-0.1,0.1,0,0.4,0.1,0.5c0.2,0.2,0.5,0.3,0.7,0.1c0.3-0.2,0.5-0.5,0.7-0.8C186.3,88.6,188.1,86.1,190,83.5l-0.2-0.2L190,83.5z
				 M231.2,107.9c-0.2,0.1-0.5,0.2-0.6,0.4c-1.6,2.9-3.1,5.9-4.7,8.8c-0.1,0.1-0.1,0.4,0,0.5c0.1,0.1,0.3,0.2,0.4,0.2
				c0.2-0.1,0.5-0.2,0.6-0.5c1.7-2.9,3.1-5.9,4.3-9C231.3,108.2,231.2,108,231.2,107.9c0.1-0.1,0.3-0.1,0.4-0.2
				c0.2-0.2,0.1-0.5-0.2-0.6c0,0-0.2,0.2-0.2,0.3C231.2,107.6,231.2,107.8,231.2,107.9z M280.6,73.8c-1.9,1.3-3.7,2.8-5.3,4.6
				c-0.3,0.3-0.2,0.8,0.2,0.9c1.4,0.5,2,0.4,2.8-0.8c0.8-1.2,1.5-2.5,2.3-3.7C280.8,74.5,280.7,74.2,280.6,73.8
				C280.6,73.8,280.6,73.8,280.6,73.8z M302,65.8c1.3,0.1,1.7-1,2.2-1.7c2.3-3.1,4.1-6.4,5.9-9.8c0.3-0.5,0.3-1,0.1-1.6
				c0.6,0.1,0.6-0.4,0.8-0.8c0,0-0.1-0.2-0.1-0.2c-0.1,0-0.2,0-0.2,0.1c-0.3,0.2-0.5,0.5-0.4,0.9c-1.9,1.7-3.1,3.9-4.2,6.1
				c-0.9,1.8-1.9,3.5-3.1,5C302.5,64.5,302,65,302,65.8C301.9,66,302.1,65.7,302,65.8z M254.5,89.1c-1,0.4-2,0.8-3,1.3
				c-4.2,1.8-8.4,3.9-13.1,4c-0.2,0-0.5,0.2-0.6,0.4c-0.1,0.2-0.1,0.5-0.1,0.7c0,0.1,0.3,0.2,0.4,0.2c0.4,0,0.7,0,1.1-0.1
				c1.4-0.7,2.9-1,4.4-1.2c0.4,0,0.8,0,1.1-0.2c2.3-1.4,5-2,7.5-3.2c0.8-0.4,1.6-0.9,2.3-1.4C254.6,89.7,254.5,89.3,254.5,89.1
				c0.4,0.3,0.8,0.2,1.2,0c0.1,0,0.1-0.2,0.1-0.2c0-0.2-0.1-0.3-0.4-0.2C255.1,88.8,254.8,89,254.5,89.1z M303.4,54.7
				c-3.7,1.5-7.3,3.2-11.1,4.5c-1.4,0.5-2.7,1.1-4,1.8c-0.7,0.4-1.5,0.7-1.9,1.5c-0.1,0.2-0.3,0.5-0.1,0.7c0.1,0.1,0.3,0.2,0.5,0.2
				c2.8-0.2,5.5-1.1,8-2.4c2.8-1.6,5.5-3.5,8.3-5.2C303.4,55.5,303.6,55.2,303.4,54.7c0.1,0.1,0.2,0.1,0.2,0.1
				C303.6,54.8,303.5,54.8,303.4,54.7z M286.7,80.1c0.5,1.4,1.7,1.1,2.7,1.2c0.8,0.1,1.6-0.5,2-1.2c0.8-1.3,1.4-2.7,1.6-4.2
				c0-0.1-0.1-0.4-0.2-0.5c-0.1-0.1-0.3-0.1-0.5,0c-0.7,0.2-1.1,0.8-1.6,1.4C289.5,78.1,288.3,79.4,286.7,80.1
				c0.1-0.7,0.8-1.1,1.3-1.6c0.6-0.6,1.2-1.1,1.8-1.7c0.7-0.6,1.1-1.3,1.1-2.4c0-1.5,0.6-2.8,1.4-4.1c0.6-1,1.2-2,1.9-2.9
				c0.4-0.6,0.3-1.2,0.4-1.8c0-0.3-0.5-0.5-0.8-0.4c-0.5,0.2-0.7,0.6-0.9,1c-1.9,2.9-3.8,5.7-5.7,8.6c-0.4,0.7-0.9,1.4-1.2,2.1
				c-0.3,0.7-0.6,1.5-0.8,2.3c-0.1,0.4,0.2,0.6,0.6,0.7C286.2,80.1,286.5,80.1,286.7,80.1z M162.9,105.7c-0.1-0.1-0.2-0.3-0.3-0.4
				c-0.6-0.5-1-0.4-1.2,0.3c-0.3,1.5-0.4,3.1,0,4.6c0.3,1.2,0.3,2.4-0.2,3.5c-1.2,2.7-1.6,5.6-2.8,8.2c-0.8,1.7-0.9,3.5,0.4,5.1
				c0.5,0.7,0.7,1.7,0.9,2.6c0.2,0.9,0.7,1.7,1.4,2.2c0.1,0.1,0.4,0.1,0.5,0c0.1-0.1,0.2-0.4,0.1-0.5c-0.6-1.2-1.1-2.5-1.5-3.8
				c-0.6-1.7-0.3-3.3,0.6-4.9c0.1,1,0,2.1,0,3.1c0,0.4-0.1,1.1,0.3,1.2c0.7,0.2,0.6-0.7,0.9-1.1c0.1-0.2,0.2-0.3,0.6-0.1
				c0,1.5-0.3,3,0.1,4.5c0.1,0.4,0,1.1,0.8,1.2c0.2-1.8,0.3-3.5,1-5.1c0.5-1.1,0.3-3.8-0.1-5.3c-1,0.5-0.6,1.8-1.5,2.4
				c-0.3-0.2-0.2-0.4-0.1-0.7c0.3-1.3,0.6-2.7,0.8-4c0.7-4.1,0.7-8.1-0.7-12.1c0.5,0.7,0.9,1.5,1.4,2.3
				C164.5,107,164.5,107,162.9,105.7z M183.3,148.6c-0.8,0.2-1.4,0-2-0.6c-1.1-1.2-1.9-2.6-2.3-4.3c-0.5-2-0.7-4.1-0.5-6.2
				c0.2-2.3,0.4-4.5,0.7-6.8c0.2-2.3,0.3-4.5-0.4-6.7c-0.1-0.3-0.4-0.4-0.7-0.3c-0.1,0-0.3,0.3-0.2,0.4c0.1,1,0.3,2,0.5,2.9
				c0.3,1.2,0.2,2.3,0.1,3.5c-0.3,3.3-1.2,6.4-2,9.6c-0.1,0.4,0,0.9-0.7,1c0.3-1.7,0.6-3.4,0.8-5.1c0.5-3.5,0.9-7,0.1-10.6
				c-0.1-0.5-0.2-0.9-0.7-1c0.3-0.7,0.3-1.4-0.1-2.1c0-0.1-0.3-0.1-0.4-0.2c0,0-0.1,0.1-0.1,0.2c0.2,0.7,0.4,1.4,0.7,2
				c-0.1,1.6,0.3,3.3-0.3,5c-0.5-0.3-0.5-0.7-0.5-1c0.1-2.1-0.5-4.1-1-6.2c-0.2-0.6-0.3-1.2-0.8-1.7c-1.3-1.2-2.6-2.5-4.2-3.5
				c-1,5.9-2.4,8.8-2.5,17.7c-0.3-0.1-0.4-0.4-0.4-0.6c-0.1-0.9-0.2-1.8-0.2-2.7c-0.1-0.9-0.1-1.8-0.1-2.7c0-0.3,0-0.8-0.5-0.8
				c-0.4,0-0.7,0.3-0.8,0.6c-0.4,2.5-0.7,5.1,0.7,7.4c0.3,0.5,0.4,1,0.6,1.5c0.8,2.8,3,4.5,5.3,6c1.5,1,3.3,1.4,4.3,3.1
				c1.1,1.7,3.5,1.4,4.7,3.1c0,0.1,0.1,0.1,0.2,0.2c0.6,0.7,1.4,0.9,2.2,1c0.7,0.1,1.4,0.2,2.2,0.2c0.3,0,0.8,0.1,0.9-0.3
				c0.1-0.2-0.1-0.5-0.2-0.7c-0.2-0.4-0.5-0.8-0.7-1.2c-2.8-4.2-3.5-8.9-2.9-13.8c0.3-2.4,0.3-4.7,0.3-7.1c0-0.5-0.1-0.9-0.5-1.2
				c-0.1-0.1-0.3-0.2-0.5-0.2c-0.3,0-0.5,0.2-0.5,0.5c0.1,2.2-0.2,4.3-0.4,6.5c-0.2,1.8-0.3,3.6-0.4,5.4c-0.1,1.6,0.1,3.3,0.4,4.9
				C180.9,145.6,181.6,147.5,183.3,148.6L183.3,148.6z M298.2,131.3c0.4-0.3,0.8-0.7,1.3-1c0.5-0.3,0.9-0.9,1.7-0.7
				c-0.6,1.2-1.2,2.2-1.7,3.2c-0.2,0.3,0.2,0.7,0.6,0.7c0.4-0.1,0.7-0.2,1-0.3c3.8-1.3,6.4-4,8.2-7.5c1.6-3.1,2.8-6.3,3.8-9.6
				c0.7-2.5,1.4-5.1,1.8-7.7c0.1-0.6,0.3-1.2,0.5-1.8c0-0.1,0.3-0.3,0.4-0.3c0.1,0,0.3,0.1,0.4,0.3c0.3,0.5,0.2,1,0.2,1.6
				c-0.4,5.1-1.8,10-4.2,14.6c-0.8,1.6-1.8,3.2-2.9,4.6c-0.2,0.2-0.3,0.5,0,0.7c0.2,0.1,0.5,0.2,0.7,0.1c1.2-0.3,2.1-1,2.9-1.9
				c1.3-1.5,2.8-2.9,4-4.5c0.8-1.1,1.8-1.7,3-2c2.1-0.5,4-1.2,5.2-3.1c0.1-0.1,0.3-0.2,0.4-0.4c3.3-3.5,7-6.5,10.7-9.6l0,0
				c1,0.1,1.5-0.6,1.9-1.3c0.4-0.7,0.7-1.5,1-2.2c0.5-1.6,0.9-3.1,1.3-4.7c0.6-2.6,1-5.2,1.2-7.8c0.1-1.4,0.2-2.7,0.4-4.1
				c0-0.2,0.2-0.6,0.3-0.6c0.4,0,0.6,0.4,0.6,0.7c0.1,0.5,0.1,1.1,0.1,1.6c0.1,4.7-0.9,9.2-2.6,13.5c-0.2,0.5-0.3,1-0.5,1.5
				c0,0.1,0,0.2,0.1,0.2c0.1,0.2,0.2,0.2,0.4,0.1c1.5-1,3-2.1,4.2-3.4c0.1-0.1,0.2-0.3,0.3-0.4c1.2-2.3,2.2-4.5,2.1-7.2
				c-0.1-2.6,0.1-5.3,0.4-7.9c0.3-2.2,0.4-4.5,0.5-6.8c0-0.1-0.1-0.3-0.2-0.4c-0.1-0.1-0.4-0.1-0.5,0c-0.9,0.5-1.6,1.2-2,2.1
				c-0.8,1.6-2.1,2.7-3.4,3.8c-1.9,1.6-3.7,3.2-5.5,4.9c-0.4,0.4-0.7,0.9-0.5,1.4c1,2.2,0.3,4.5-0.1,6.7c-0.3,1.6-0.9,3.3-1.8,4.7
				c-0.4-0.3-0.2-0.6-0.2-0.8c0.3-1.9,0.7-3.8,1-5.6c0.2-1.3,0.3-2.7,0.2-4.1c0-0.3-0.6-0.6-0.9-0.4c-0.9,0.5-1.4,1.2-1.3,2.2
				c0,1.9-0.3,3.8-0.7,5.7c-0.5,2.1-0.9,4.2-2.4,6.4c-0.2-1.4,0-2.3,0.2-3.3c0.5-2.4,0.8-4.8,1.2-7.2c0-0.3,0-0.5-0.3-0.6
				c-0.1,0-0.4,0-0.5,0.1c-0.8,0.4-1.3,1-1.2,1.9c0,1.7,0,3.5-0.1,5.2c-0.3,3.9-1.6,7.4-3.4,10.8c-0.2,0.3-0.4,0.8-0.9,0.8
				c-0.2-0.7,0.2-1.3,0.4-1.8c1-3,1.8-6.1,2.2-9.3c0.2-1.5,0.3-3.1,0.2-4.6c0-0.4-0.4-0.6-0.8-0.5c-1.4,0.5-2.3,1.4-2.2,3.1
				c0.1,2-0.2,4-0.4,6c-0.4,3.9-1.8,7.4-3.6,10.8c-0.3,0.5-0.4,1.1-1.1,1.2c2.6-6.9,3.9-15.3,3.5-18c-1.9,0.6-2,0.7-2,2.3
				c0,1.3-0.1,2.5-0.2,3.8c-0.4,4.3-2.1,8.2-3.9,12.1c0,0.1-0.3,0.1-0.5,0.2c0.3-1,0.6-2,0.9-2.9c1.2-3.6,2-7.3,2.5-11.1
				c0.1-0.6,0.1-1.3,0-1.9c0-0.4-0.4-0.6-0.8-0.4c-1.7,0.9-3.4,1.8-5.1,2.6c-1.1,0.5-1.6,1.3-1.6,2.6c-0.2,3-0.9,5.9-1.9,8.8
				c-1.3,3.9-2.8,7.7-4.2,11.5c-0.2,0.5-0.4,1-0.7,1.5c-0.4,0.6-0.5,1.4-1.3,1.6c-0.8-0.9,0.5-1.3,0.5-2.1c0-0.3,0.2-0.5,0.3-0.8
				c2-6.1,4.1-12.2,5.6-18.5c0.2-0.7,0.2-1.4,0.3-2.1c0-0.5-0.4-0.7-1-0.6c-0.5,0.1-0.9,0.3-1.1,0.8c-0.3,0.7-0.6,1.3-0.8,2
				c-0.4,2-0.9,4.1-1.2,6.2c-0.5,3.7-1.9,7-3.5,10.2c0,0-0.2,0-0.4,0c0.5-2.4,1.6-4.6,2.1-7c0.4-2.5,0.9-5,1.3-7.6
				c-1,0.1-1.5,0.6-1.8,1.3c-0.4,0.8-0.7,1.7-1,2.5c-0.5,1.6-1,3.3-1.6,4.9c-0.1,0.4-0.2,0.9-0.8,0.8c-0.3-0.7-0.1-1.4,0.1-2.2
				c0-0.5,0.3-1-0.1-1.7c-0.2,0.7-0.2,1.2,0.1,1.8c-0.5,0.1-0.8,0.4-0.9,0.8c-0.5,1.6-1,3.3-1.6,4.9c-0.1,0.2-0.2,0.5-0.4,0.7
				c-0.1,0.1-0.4,0-0.5-0.1c-0.2-0.3,0-0.9-0.6-1c-1.5,4.3-3,7.3-4.5,9.1c-0.2-0.5,0-0.9,0.1-1.3c0.6-1.7,1.2-3.4,1.8-5.1
				c0.6-1.7,1-3.5,1.3-5.3c0.1-0.4,0.1-0.8-0.3-0.9c-0.3-0.1-0.7,0-1,0.2c-0.7,0.4-1.2,1.1-1.4,1.9c-1.6,4.9-3.3,9.8-4.9,14.7
				c-0.1,0.3-0.2,0.7-0.2,1.1c-0.1,1.1,0.4,1.5,1.4,1.3c1.6-0.4,2.9-1.4,4.3-2.2c1.4-0.8,2.4-1.8,2.9-3.4c0.5-1.7,1.5-3.3,2.8-4.6
				c0.2-0.3,0.5-0.8,1.1-0.3C299.3,128.9,298.6,130.1,298.2,131.3c0.1,0.1,0.1,0.1-0.1,0.1C298.2,131.4,298.2,131.4,298.2,131.3z
				 M341.6,71.1l-0.1,0.1L341.6,71.1c-0.3,0.3,0.6,1.2-0.6,1.1c-0.6-0.1-1,0.4-1.1,1c-0.4,1.3-0.9,2.6-1.3,3.9
				c-0.2,0.7-0.3,1.5-0.7,2c-0.5,0.5-1.3,0.8-2.1,0.9c-0.8,0.2-0.5,1.1-1.4,1.3c0-0.3-0.1-0.7,0-1c0.4-1.6,0.9-3.1,1.4-4.7
				c0.4-1.1,0.7-2.2,1.1-3.4c0.2-0.6-0.1-1-0.7-1.3c-0.4-0.2-0.9-0.2-1.3-0.4c-3.1-1-6.2-1.2-9.4-1.8c-1.2-0.2-1.4-0.1-1.9,1
				c-1.2,2.9-2.5,5.9-3.6,8.8c-0.6,1.5-1.1,3.1-1.6,4.6c-0.3,0.8,0,1.2,0.8,1.4c1.2,0.2,2.3,0.3,3.5,0.4c0.4,0,1,0,1.2,0.4
				c0.3,0.7,0.9,0.8,1.6,0.9c0.6,0.1,1.2,0.3,1.8,0.5c0.3,0.1,0.3,0.4,0.2,0.7c-0.1,0.3-0.2,0.5-0.5,0.5c-0.5,0-0.9-0.1-1.3-0.1
				c-2.5-0.2-5.1-0.4-7.6-0.5c-0.3,0-0.5,0.3-0.3,0.6c0.5,0.7,0.7,1.2-0.5,1.1c-0.4,0-0.6,0.2-0.8,0.5c-0.6,1.1-0.5,2.6-2.1,2.9
				c-0.2,0-0.4,0.6-0.5,0.9c-0.4,0.9-0.9,1.8-1.1,2.8c-0.3,1.3-1.2,2.1-2.4,3c-0.1-0.6-0.2-1-0.2-1.4c0.3-2,0.7-3.9,1.1-5.9
				c0.1-0.7,0.4-1.4,0.5-2.1c0.1-0.5-0.2-0.9-0.7-1c-0.3-0.1-0.7-0.2-1.1-0.2c-5.2-0.9-10.4-1.9-15.5-2.8c-1.1-0.2-1.3-0.1-1.7,0.8
				c-1.7,4.2-3.4,8.4-5.1,12.6c-0.2,0.5-0.4,1,0.2,1.6c2.4,0.4,4.8,1.1,7.4,1.2c1.4,0.1,2.7,0.3,4.1,0.4c0.3,0,0.8,0.2,0.7,0.3
				c-0.5,0.5-0.3,0.8,0.2,1c0.4,0.1,0.9,0.3,1.3,0.3c0.4,0.1,0.9,0.1,1.4,0.2c0.2,0,0.6,0.2,0.6,0.3c0.2,0.4-0.2,0.4-0.5,0.5
				c-1.3,0.2-2.6,0.8-3.9,0.8c-0.2,0-0.4,0.3-0.5,0.5c-0.1,0.3,0.2,0.4,0.5,0.5c1.2,0.2,2.3,0.3,3.5,0.5c0.9,0.2,1.6,0,2.1-0.9
				c0.8-1.4,2-2.3,3.7-2.4c0.4,0,0.9-0.2,1.3-0.4c2.9-1.5,5.9-2.8,8.7-4.5c7.5-4.7,15-9.6,21.7-15.5c1.2-1,2.3-2.1,3-3.5
				c0.6-1.1,1.3-2.3,2.3-3c1.2-0.9,1.6-1.9,1.4-3.3c-0.2-1.2,0-2.4,0.6-3.4c1-1.6,0.3-3-0.8-3.9c-0.9-0.8-1.4-1.6-1.8-2.6
				c-0.5-1.3-1.4-2.3-2.5-3.2c-1.2-0.9-2.4-1.6-3.9-1.7c-2.7-0.3-5-1.6-7.1-3.3c-0.4-0.3-0.9-0.7-1.3-1c-0.7-0.5-1.6-0.9-2.5-1
				c-3.5-0.6-6.9-1.7-9.5-4.3c-0.2-0.2-0.4-0.4-0.7-0.5c-2.6-1.4-2.8-1.8-4.3,1.2c-1.4,2.9-2.9,5.9-4.6,8.6
				c-0.6,0.9-1.2,1.8-1.4,2.9c0.3,0.1,0.5,0.3,0.8,0.3c3,0.6,6.1,1.2,9.1,1.7c1.2,0.2,2.5,0.4,3.8,0.6c0.9,0.2,1.4-0.2,1.7-0.9
				c1-2.1,1.9-4.1,2.6-6.3c0.3-0.8,0.8-1.1,1.9-1c0.8,0.1,0.5,0.8,0.7,1.3c0.3,1.3,0,2.5-0.4,3.7c-0.4,1.1-0.8,2.2-1.1,3.4
				c-0.1,0.4,0,0.7,0.4,0.9c0.2,0.1,0.5,0.2,0.8,0.3c3.2,0.8,6.4,1.4,9.6,1.9c0.3,0,0.5,0.1,0.8,0.1c0.4,0,0.7-0.1,0.9-0.5
				c0.3-0.6,0.3-1.3,1-1.5c0.8-0.3,0.5-1.4,1.4-1.6c0.9,0.6,1.2,1.4,0.9,2.5c-0.3,0.8-0.7,1.7,0.3,2.5c0.2,0.1,0.1,0.3-0.1,0.4
				c-1.3,0.5-0.5,0.8,0.1,1.1c0.3,0.2,0.7,0.2,1,0.3c0.4,0.1,0.8,0.1,0.9,0.7C343.1,71.8,342.4,71.3,341.6,71.1z M213.2,97.1
				c-1.4-0.1-2.7-0.1-4.1-0.2c-0.9-0.1-1.6,0.2-2.1,1c-0.7,1.2-1.6,2.2-2.3,3.4c-2.1,3.7-4.1,7.5-6.2,11.2c-0.2,0.3-0.3,0.7-0.4,1
				c-0.1,0.4,0,0.7,0.4,0.9c0.4,0.1,0.9,0.2,1.3,0.2c3.4,0.4,6.9,0.8,10.3,1.2c3.8,0.5,7.5,1,11.3,1.6c0.9,0.1,1.4-0.2,1.7-0.9
				c1.5-2.9,3.1-5.8,4.6-8.6c0.1-0.2,0.1-0.3,0.2-0.5c0.1-0.4-0.2-0.5-0.4-0.5c-0.3,0-0.7,0.2-1,0.3c-1.5,0.7-3.1,1.1-4.6,1.5
				c-1.1,0.3-2.2,0.3-3.2-0.1c-0.8-0.3-1-1-0.8-1.8c0.3-0.9,0.9-1.5,1.7-2.1c0.8-0.6,1.7-1.1,2.4-1.7c1.4-1.2,3-2.1,4.7-2.6
				c0.6-0.2,1.2-0.5,1.7-0.7c0.1-0.1,0.3-0.3,0.3-0.4c0-0.3-0.3-0.5-0.5-0.5c-2.5-0.1-5.1-0.2-7.6-0.7
				C218.3,97.5,215.7,97.3,213.2,97.1z M228.2,118.1c0.4,0.1,0.8,0.2,1.1,0.3c4.8,0.7,9.7,1.4,14.5,2.1c0.8,0.1,1.6,0.2,2.4,0.4
				c1.9,0.3,2.2,0.2,3-1.5c2.2-5.4,4.4-10.7,6.5-16.1c0.3-0.8,0-1.1-0.9-1.3c-0.8-0.1-1.6-0.2-2.4-0.4c-1.1-0.2-1.9,0.1-2.7,0.9
				c-1.1,1.2-2.4,2.2-3.8,3c-0.6,0.3-1.3,0.7-2,0.7c-0.8,0-1.6,0.1-2.2-0.7c-0.7-0.8-0.2-1.5,0.1-2.3c0-0.1,0.1-0.2,0.1-0.2
				c1.2-2.3,1.2-2.2-1.2-2.7c-1.4-0.3-2.6-0.1-3.8,0.9c-1,0.9-2,1.7-2.5,3.1c-0.3,0.9-0.9,1.8-1.4,2.6c-0.7,1.1-1.2,2.2-1.7,3.4
				c-0.7,1.8-1.5,3.5-2.2,5.3C228.7,116.3,228.2,117,228.2,118.1z M305.4,49.3c0.1,0.2,0.2,0.4,0.2,0.5c-0.1,0.7-0.7,1.5,0,2
				c0.7,0.4,1.6,0.1,2.3-0.2c1.2-0.5,2.1-1.5,2.7-2.6c0.2-0.3,0.1-0.6-0.2-0.7c-0.4-0.2-0.9-0.6-1.2-0.5c-1.6,0.3-3.1-0.1-4.6-0.1
				c-0.7,0-1.5-0.1-2.2,0.1c-2.7,0.6-5.4,0.5-8.1,0.5c-1.1,0-2.1,0.1-3.2,0.6c-2.3,1-4.6,1.3-7.2,0.7c-2.1-0.5-4.4-0.2-6.3,0.9
				c-0.9,0.5-1.9,0.6-2.9,0.4c-0.9-0.2-1.8-0.2-2.7-0.6c-1.7-0.7-3.1-0.2-4.7,0.5c-2.8,1.3-5.4,3.1-8.5,3.7c-0.6,0.1-0.9,0.5-1,1.1
				c-0.4,2.1-0.1,2.5,2.1,2.7c0.5,0.1,1.3,0.4,1.5-0.1c0.8-1.5,2-1,3.1-0.8c3.6,0.5,7.2,1,10.8,1.6c1.3,0.2,2.1-0.1,2.7-1.2
				c0.9-1.4,1.8-2.7,2.7-4.1c0.3-0.4,0.5-1,1.4-0.7c-0.7,0.9-0.3,2.1-0.9,3.1c-0.5,0.9-1.5,2-1,3c0.5,1.3,2.1,0.7,3.1,1
				c1.6,0.5,3.2,0.2,4.7-0.6c1.6-0.8,3.3-1.6,4.9-2.2c2.4-0.9,4.7-1.8,7-2.9c1.1-0.5,2-1.2,2.4-2.3C303.2,50.9,304,49.8,305.4,49.3z
				 M320.5,68.1c-0.5-0.6-1.1-0.7-1.6-0.8c-3.3-0.7-6.5-1.4-9.8-2.1c-1-0.2-2-0.3-3-0.4c-0.8-0.1-1.4,0.1-1.9,0.8
				c-0.4,0.5-0.8,1-1.3,1.4c-0.5,0.5-1.1,1.1-1.8,1c-1.1,0-1.4,0.7-1.6,1.5c-0.9,3.2-2.2,6.3-3.4,9.4c-0.2,0.6-0.4,1.2-0.6,1.8
				c-0.1,0.5,0.2,0.9,0.7,1c5.1,1.1,10.2,1.6,15.3,2.3c0.4,0.1,0.7,0,1.1,0c0.8,0.1,1.3-0.3,1.6-1.1c1.7-3.9,3.4-7.8,5.1-11.7
				C319.9,70.2,320.2,69.1,320.5,68.1z M278.6,100.3c0.9,0,1.8,0,2.7,0c1,0,1.5-0.4,1.8-1.3c0.9-2.1,1.7-4.2,2.6-6.3
				c1-2.4,2.1-4.8,3.2-7.2c0.3-0.7,0.1-1.1-0.5-1.2c-2.5-0.4-5.1-0.4-7.6-0.6c-0.5,0-0.9,0.2-1.2,0.5c-0.5,0.5-1.1,1-1.8,1.3
				c-0.9,0.4-1.7,0-1.8-1c-0.1-0.4-0.1-0.9-0.1-1.4c0-0.7-0.5-0.9-1.1-0.9c-0.5,0-1.1,0.1-1.6,0.1c-0.9,0-1.5,0.4-2,1.2
				c-2.1,3.6-4.3,7.1-6.5,10.7c-0.6,1-1.3,2-2.2,2.7c-0.3,0.2-0.5,0.5-0.6,0.9c-0.1,0.2-0.1,0.6,0.2,0.7c0.3,0.1,0.7,0.2,1,0.2
				c2.2,0.2,4.3,0.3,6.5,0.6C272.6,99.8,275.6,100.1,278.6,100.3z M274,72c-1.5,0.1-2.7-0.2-3.9-0.8c-1.1-0.5-1.2-1.4-0.2-2.1
				c0.4-0.3,0.8-0.5,1.2-0.7c1.2-0.4,1.9-1.3,2.5-2.4c0.4-0.7,0.7-1.5,1-2.2c0.3-0.8,0.1-1.1-0.8-1.3c-2.2-0.3-4.3-0.7-6.5-0.9
				c-3.1-0.4-6.1-0.7-9.2-1.1c-0.4,0-1-0.1-1.1,0.4c-0.8,2.7-2.4,4.9-4.1,7c-1.3,1.6-2.3,3.3-2.8,5.2c-0.1,0.5-0.4,1-0.6,1.5
				c-0.3,0.8-0.1,1.2,0.7,1.4c2.7,0.5,5.3,1,8,1.5c0.6,0.1,1.1,0,1.5-0.4c1.2-1,2.6-1.6,4.1-2.2c2.2-0.8,4.5-1.3,6.8-1.9
				C271.7,73,272.9,72.8,274,72z M273.4,143.4c1-1.9,1.9-3.9,2.9-5.8c1-2.1,1.5-4.3,1.8-6.5c0.2-1.1-0.3-1.4-1.5-1
				c-0.9,0.3-1.3,0.9-1.4,1.8c-0.6,4.9-1.9,9.6-4.2,14c-0.2,0.3-0.3,0.7,0.1,1c2-0.6,3.7-1.8,5.5-2.9c3-1.8,6-3.8,9.3-5.1
				c0.9-0.4,1.1-1.1,1.2-1.9c0.4-4.5,1.8-8.7,3.4-12.8c0.3-0.7,0.5-1.3,0.8-2c0.1-0.3,0.1-0.6-0.2-0.7c-0.2-0.1-0.5,0-0.8,0.1
				c-0.6,0.2-0.8,0.6-1,1.2c-1.2,4.6-3.4,9-4.4,14.3c-0.4-2.5,0.1-4.2,0.6-5.9c0.6-2.1,1.3-4.1,2-6.2c0.1-0.4,0.2-0.9,0.3-1.3
				c0-0.1-0.1-0.2-0.1-0.2c-0.2,0-0.4-0.1-0.5,0c-0.3,0.2-0.6,0.5-0.7,0.8c-0.6,2.3-1.7,4.4-2,6.8c-0.1,0.8-0.1,1.6-0.7,2.3
				c-0.4-0.3-0.3-0.7-0.3-1c0.1-2,0-4,0.5-6c0.1-0.2,0-0.6-0.2-0.7c-0.2-0.1-0.6-0.1-0.8,0c-1.1,0.7-2.1,1.4-3.1,2.2
				c-0.3,0.3-0.5,0.8-0.6,1.2c-0.1,0.5-0.2,1.1-0.2,1.6C278.9,135.4,276.5,139.6,273.4,143.4z M265.9,81.3c-2.3,0.5-4,0.9-5.8,1.1
				c-2.2,0.3-4.3,0.6-6.5,0.8c-2.8,0.2-5.6-0.4-8.4-0.7c-1.3-0.1-2.5-0.3-3.8-0.4c-0.9,0-1.9-0.3-2.5,0.6c-0.4,0.5,0.5,1.6,1.9,2.4
				c0.4,0.2,0.8,0.3,1.2,0.5c1.3,0.6,2.7,0.6,4,0.7c5.2,0.6,10.3-0.1,15.3-2C262.9,83.9,264.5,83.1,265.9,81.3z M239.9,97.3
				c-4.3,1.2-8.2,2.7-12.2,4.3c-2.8,1.1-5,2.9-7.2,4.7c-0.3,0.2-0.5,0.6-0.3,0.9c0.1,0.2,0.5,0.2,0.7,0.2c0.4,0,0.9-0.2,1.3-0.3
				c6.6-1.6,12.2-5.3,17.6-9.3C239.9,97.8,239.8,97.7,239.9,97.3z M306.2,55.3c-1.8,0.9-2.6,2.2-3.6,3.3c-3.4,3.6-6.2,7.6-9.1,11.6
				c-0.5,0.7-1,1.5-1.3,2.4c-0.2,0.4-0.6,1,0,1.5c0.4,0.3,0.9,0,1.3-0.2c0.8-0.5,1.5-1,2.1-1.6c1.9-1.9,3.5-4.2,4.8-6.6
				c1.4-2.7,2.9-5.2,4.6-7.7C305.4,57.2,305.9,56.5,306.2,55.3z M257.1,89.9c-0.4,0.1-0.6,0.2-0.8,0.3c-4.4,3.1-8.3,6.8-11.6,11
				c-0.7,0.8-1.2,1.8-1.7,2.8c-0.1,0.1,0,0.4,0.1,0.5c0.1,0.1,0.3,0.2,0.5,0.2c0.3-0.1,0.7-0.2,1-0.3c2.2-1,3.9-2.7,5.4-4.5
				c1.3-1.5,2.6-3.1,3.7-4.7C254.9,93.5,256.4,92.2,257.1,89.9z M277.6,84c0.4,0,0.7-0.2,0.9-0.5c2.2-2.3,4.3-4.6,5.9-7.4
				c0.8-1.4,1.8-2.7,2.6-4.1c0.7-1,1.9-1.7,2.1-3c0.1-0.4-0.6-0.1-3.2,2c-1.8,1.5-3.4,3.3-4.9,5.1c-1.5,1.8-2.6,3.9-3.5,6.1
				c-0.2,0.5-0.5,1-0.3,1.6C277.2,83.9,277.4,83.9,277.6,84z M254.5,97.5c0.3,0.1,0.6,0.4,0.9,0.4c2,0.4,2.4,0.3,3-1.6
				c0.6-1.8,1.5-3.4,2.6-5c0.9-1.4,1.9-2.9,2.8-4.3c0.2-0.3,0.7-0.7,0.2-1.2c-1.9,0.7-3.4,1.8-4.4,3.7c-1.1,2-2.3,4.1-3.9,5.8
				C255.1,95.9,254.7,96.5,254.5,97.5z M269.5,83.1c-0.3-0.1-0.5,0-0.7,0.2c-1.2,1.1-2.4,2.2-3.4,3.5c-1.8,2.4-3.4,4.9-4.9,7.5
				c-0.2,0.4-0.3,0.8-0.5,1.2c0,0.1,0,0.4,0.2,0.5c0.1,0.1,0.4,0.1,0.5,0c0.6-0.5,1.3-0.9,1.9-1.5c3-3.3,5.1-7.2,7-11.2
				C269.6,83.3,269.5,83.2,269.5,83.1z M288.7,66.5c-1.4,0.2-2.5,0.3-3.5,0.5c-3.8,0.7-7.6,1.6-11.5,2.1c-0.8,0.1-1.6,0.2-2,1.1
				c-0.2,0.5,0.7,0.8,2,0.7c0.4,0,0.7-0.1,1.1-0.1c3.5-0.5,6.9-1.4,10.3-2.4C286.3,68.1,287.5,67.7,288.7,66.5z M287.1,65
				c-1.4-0.2-2.6,0-3.1-0.5c-1-0.9-2.2-0.8-3.3-1.1c-3-0.6-2.7-0.2-3.9,2.1c0,0.1-0.1,0.2-0.1,0.2c-0.2,0.4-0.5,0.9-0.1,1.2
				c0.2,0.2,0.7,0.2,1,0.1C280.5,66.4,283.6,66.1,287.1,65z M238.8,92.5c1.3,0.5,2.5-0.1,3.7-0.4c2.7-0.7,8.1-3.2,9.3-4.1
				c-0.5-0.4-1.1-0.3-1.5-0.2c-3.5,1.2-7.3,1.6-10.5,3.5C239.4,91.6,238.8,91.8,238.8,92.5z M262.7,77.6c5.4,0,10.5-0.9,13.6-4
				C271.6,74.7,267,75.4,262.7,77.6z M256.6,81c-1.7-0.6-7-1.5-8.2-1.5c-1,0-1.4,0.7-1.7,1.5C249.8,82,250.6,82.1,256.6,81z
				 M197.6,116.1c5.4,1,10.8,1.6,16.3,1.9c-1.7-0.7-3.5-1-5.3-0.9c-0.6,0-1.3-0.1-1.9-0.2c-2.7-0.3-5.4-0.7-8.1-1
				C198.3,116,198,116.1,197.6,116.1z M243,96.9c1.3,0.2,2.1,0.5,2.8,0.3c1.3-0.3,2-1.5,2.9-2.2c0.3-0.2,0.6-0.5,0.1-1
				C247.1,94.8,245,95.2,243,96.9z M165.9,126.4c1.7-7.2,1.8-7.7,1.3-10C166.3,118.8,165.6,123.5,165.9,126.4z M196.2,94.5
				c-1-0.1-1.5-0.2-1.9-0.2c-2.1-0.1-4.1,0-6.1-0.5c-0.2,0-0.4,0-0.5,0c-0.2,0-0.5,0-0.5,0.4c0,0.1,0.2,0.3,0.4,0.3
				c1.7,0.5,3.4,0.3,5.1,0.4C193.6,94.9,194.6,94.9,196.2,94.5z M217.2,148.2c1.2-1.2,1.7-2.8,2.1-4.4c0-0.1-0.2-0.4-0.3-0.4
				c-0.2,0-0.7,0-0.7,0.1C217.8,145.1,217.4,146.6,217.2,148.2z M238.9,75.5c-1.8-1.1-3.5-1.2-5.3-0.6
				C235.2,75.1,236.8,76,238.9,75.5z M178.6,99.3c1.2-1.3,2-2.4,2.6-3.6c0-0.1-0.1-0.4-0.2-0.4c-0.1-0.1-0.4,0-0.5,0.1
				C179.7,96.2,179.2,97.1,178.6,99.3z M297.3,121.2c0.8-1.4,1.1-2.3,1.1-3.3c0-0.2-0.2-0.6-0.3-0.6c-0.4-0.1-0.7,0.1-0.8,0.5
				C296.9,118.7,297,119.7,297.3,121.2z M244.8,87.9c-0.2-0.4-0.6-0.4-0.9-0.5c-0.5-0.1-0.9,0-1.1,0.4c-0.1,0.2-0.1,0.5,0.1,0.7
				c0.3,0.3,0.6,0.1,1,0c0.3-0.1,0.5-0.2,0.7-0.3C244.7,88.2,244.7,88,244.8,87.9z M311.9,88c-0.7-1-1.5-1-3-0.5
				C310.2,87.8,311,87.9,311.9,88z M267.8,100.7c0-0.1,0-0.3,0-0.4c-0.4,0-0.9,0-1.3,0c-0.1,0-0.3,0.1-0.4,0.2
				c0.2,0.1,0.3,0.2,0.5,0.2C266.9,100.7,267.4,100.7,267.8,100.7z M252.5,77.7c-0.1-0.1-0.1-0.1-0.2-0.2c-0.4-0.2-1.2,0.1-1,0.1
				c0.3,0.1,0.7,0.1,1,0.1C252.4,77.8,252.4,77.7,252.5,77.7z M190.4,115.4c0.2,0,0.3-0.1,0.5-0.1c-0.2-0.1-0.3-0.2-0.5-0.2
				c-0.2,0-0.3,0.1-0.5,0.1C190.1,115.3,190.2,115.3,190.4,115.4z M256.8,99.5c0,0,0-0.1,0-0.2c-0.2-0.2-1.2-0.1-1.1,0.1
				c0,0.1,0.1,0.1,0.2,0.2C256.1,99.6,256.4,99.7,256.8,99.5z M284.6,79.3c-0.1-0.1-0.2-0.3-0.3-0.4c-0.1,0.1-0.3,0.2-0.4,0.3
				c-0.1,0.2-0.2,0.4-0.2,0.7c0,0,0.3,0.2,0.4,0.2c0.2-0.1,0.3-0.3,0.5-0.5C284.6,79.5,284.6,79.4,284.6,79.3z M182.6,93.5
				c-0.1-0.3-0.4-0.3-0.6-0.2c-0.2,0.1-0.3,0.2-0.2,0.4c0.1,0.1,0.2,0.3,0.3,0.3C182.4,93.9,182.6,93.8,182.6,93.5z M225.3,163.5
				c-0.1-0.1-0.2-0.3-0.4-0.5c-0.1,0.2-0.2,0.5-0.3,0.7c0,0.1,0.2,0.4,0.3,0.4C225.2,164.1,225.3,163.9,225.3,163.5z M269.8,137
				c0-0.1,0-0.3-0.1-0.4c-0.1,0.1-0.2,0.2-0.2,0.3c0,0.1,0.1,0.2,0.1,0.4C269.7,137.1,269.7,137,269.8,137z M270.2,134.4
				c0.1-0.1,0.1-0.1,0.2-0.2c0.1-0.3,0.2-0.7-0.1-0.9c0,0-0.1,0-0.2,0c-0.2,0.3-0.2,0.6,0,0.9C270,134.3,270.1,134.3,270.2,134.4z
				 M216.4,118.5c0.1,0,0.1,0.1,0.2,0.1c0.1,0,0.1-0.1,0.2-0.1c-0.1,0-0.1-0.1-0.2-0.1C216.5,118.4,216.5,118.5,216.4,118.5z
				 M262.8,100c-0.1,0-0.1-0.1-0.2-0.1c-0.2,0-0.3,0.1-0.1,0.2c0,0,0.1,0,0.2,0C262.8,100.1,262.8,100,262.8,100z M336.6,68.8
				c0,0.1,0,0.2,0,0.2c0.2,0,0.3,0,0.5,0c0-0.1,0-0.2,0-0.2C337,68.8,336.8,68.8,336.6,68.8z M199.8,155c-0.1,0.1-0.2,0.3-0.2,0.4
				c0,0.1,0.1,0.3,0.2,0.4c0.1-0.1,0.2-0.2,0.2-0.4C200,155.2,199.9,155.1,199.8,155z M249.1,77.2c0.1,0,0.1-0.1,0.2-0.1
				c-0.1,0-0.1-0.1-0.2-0.1c-0.1,0-0.1,0-0.2,0.1C249,77.1,249,77.1,249.1,77.2z M241.9,149.7c0,0.1,0,0.2,0,0.3
				c0,0,0.1-0.1,0.1-0.1C241.9,149.8,241.9,149.8,241.9,149.7z M164.8,110.7l0.1,0l-0.1-0.2L164.8,110.7z M163.3,133.7l-0.1,0.1
				l0.1,0L163.3,133.7z M245.6,80.9l0.2,0.1l0-0.2L245.6,80.9z"/>
		</g>
		<g>
			<path d="M180.5,103c-0.5,1.7-1.6,3.1-2.8,5.1C178.4,105.4,179,104.4,180.5,103L180.5,103z"/>
		</g>
		<g>
			<path d="M276.3,121.7c-0.4-1.3-0.2-1.5,1-2l0,0c0,0.3,0,0.7-0.1,1C277.1,121.1,277,121.6,276.3,121.7L276.3,121.7z"/>
		</g>
		<g>
			<path d="M180.6,103.1c0-1.2,0.7-2.1,1.6-2.7c0,0-0.1-0.1-0.1-0.1C181.8,101.3,181.4,102.3,180.6,103.1
				C180.5,103,180.6,103.1,180.6,103.1z"/>
		</g>
		<g>
			<path d="M191.1,87.6c-0.7,0.2-0.9,0.8-1.2,1.3l0.1,0C189.8,88,190.5,87.8,191.1,87.6L191.1,87.6z"/>
		</g>
		<g>
			<path d="M193.5,81.7c0.4-0.2,0.8-0.4,1.2-0.6c-0.3,0.6-0.5,1.3-1.3,1.5l0,0.1C193.4,82.3,193.5,82,193.5,81.7z"/>
		</g>
		<g>
			<path d="M183,98.6c0,0.8-0.3,1.3-0.9,1.7c0,0,0.1,0.1,0.1,0.1C182.2,99.6,182.7,99.2,183,98.6C183.1,98.6,183,98.6,183,98.6z"/>
		</g>
		<g>
			<path d="M277.3,119.7c-0.4-0.8,0-1.5,0-2.3c0,0,0-0.1,0-0.1C277.5,118.1,277.4,118.8,277.3,119.7
				C277.3,119.6,277.3,119.7,277.3,119.7z"/>
		</g>
		<g>
			<path d="M201.4,77.5c0.1,0,0.1,0,0.2,0C201.5,77.5,201.5,77.5,201.4,77.5C201.4,77.5,201.4,77.5,201.4,77.5z"/>
		</g>
		<g>
			<path d="M191.2,86c0,0.5-0.1,1.1-0.1,1.6c0,0,0,0,0,0C191.1,87,191.2,86.5,191.2,86L191.2,86z"/>
		</g>
		<g>
			<path d="M276.3,121.7c-0.2,0.4-0.4,0.9-0.6,1.3l0,0.1C276.2,122.7,276.3,122.2,276.3,121.7C276.3,121.7,276.3,121.7,276.3,121.7z
				"/>
		</g>
		<g>
			<path d="M184.1,98.1c0-0.5,0-0.9,0-1.4c0,0,0-0.1,0-0.1C184.1,97.1,184,97.6,184.1,98.1L184.1,98.1z"/>
		</g>
		<g>
			<path d="M248.9,128.9c0-0.4,0.3,0,0-0.1C248.8,128.7,248.8,128.8,248.9,128.9C249,128.9,248.9,128.9,248.9,128.9z"/>
		</g>
		<g>
			<path d="M275.7,123c0,0.1,0,0.1,0.1,0.2c0.1-0.1,0.1-0.2-0.1-0.1C275.6,123.1,275.7,123,275.7,123z"/>
		</g>
		<g>
			<path d="M184,98.2c-0.3,0.1-0.7,0.3-1,0.4c0,0,0.1,0,0.1,0C183.4,98.5,183.7,98.3,184,98.2C184.1,98.1,184,98.2,184,98.2z"/>
		</g>
		<g>
			<polygon points="187.3,91.9 187.5,92 187.3,91.9 			"/>
		</g>
		<g>
			<polygon points="189.8,88.8 189.7,88.9 189.9,88.8 			"/>
		</g>
		<g>
			<polygon points="191.2,85.9 191.3,86 191.2,86 			"/>
		</g>
		<g>
			<polygon points="192.3,84.3 192.3,84.5 192.3,84.3 			"/>
		</g>
		<g>
			<polygon points="192.3,84.3 192.5,84.3 192.3,84.3 			"/>
		</g>
		<g>
			<path d="M193.4,82.6l0.1,0.2C193.5,82.8,193.4,82.6,193.4,82.6C193.4,82.6,193.4,82.6,193.4,82.6z"/>
		</g>
		<g>
			<path d="M248.6,157.6c0-0.1-0.1-0.2-0.1-0.2c2-3.5,3-7.4,4.3-11.1c0.7-1.8,1-3.7,1.4-5.5c0.2-1.1,0.5-2.1,0.8-3.2
				c0-0.1,0.3-0.3,0.4-0.3c0.1,0,0.3,0.2,0.4,0.3c0.1,0.1,0,0.4,0,0.5c-0.3,4.4-1.2,8.6-3.1,12.6c-0.7,1.4-1.3,2.8-1.9,4.2
				c-0.4,0.9-1,1.7-1.6,2.5C249.1,157.7,248.8,157.8,248.6,157.6z"/>
		</g>
		<g>
			<path d="M253.5,153.3c-0.3-0.7,0-1.3,0.3-1.8c1.2-2.9,2.2-5.9,2.7-9.1c0-0.3,0.2-0.5,0.6-0.4c0.1,0,0.2,0.3,0.2,0.4
				c0.2,2.6-0.5,5-1.5,7.4c-0.5,1.2-1.3,2.4-2,3.5C253.8,153.3,253.6,153.3,253.5,153.3z"/>
		</g>
		<g>
			<path d="M210.6,142.6c-1.1,0.9-1.6,2.1-2,3.4c-0.2,0.7-0.5,1.3-0.8,2c-0.2,0.6-0.5,1.1-0.8,1.6c-0.4-0.1-0.5-0.4-0.5-0.6
				c0.2-2,0.8-3.9,1.7-5.6c0.2-0.4,0.5-0.8,0.8-1.1C209.5,141.7,209.9,141.8,210.6,142.6C210.5,142.7,210.6,142.6,210.6,142.6z"/>
		</g>
		<g>
			<path d="M196.6,144.4c-0.5-0.8-0.9-1.7-0.5-2.7c0.1-0.1,0.3-0.3,0.4-0.3c0.1,0,0.4,0.1,0.4,0.2c0.1,0.9,0.2,1.8,0.2,2.6
				C197,144.3,196.8,144.3,196.6,144.4z"/>
		</g>
		<g>
			<path d="M258.7,145c0.4,1.6,0,2.8-0.9,4.2C257.7,147.3,257.9,146.3,258.7,145z"/>
		</g>
		<g>
			<path d="M188.8,148.5c0.1,0.5,0.2,1.1,0.3,1.6l0.1,0C189.1,149.6,188.7,149.1,188.8,148.5C188.8,148.4,188.8,148.5,188.8,148.5z"
				/>
		</g>
		<g>
			<path d="M189.1,150.1c0.1,0,0.1-0.1,0.2-0.1c-0.2-0.1-0.2,0,0,0.1C189.2,150.1,189.1,150.1,189.1,150.1z"/>
		</g>
		<g>
			<path d="M267.4,146.8l-0.1-0.1C267.3,146.7,267.5,146.8,267.4,146.8C267.5,146.8,267.4,146.8,267.4,146.8z"/>
		</g>
		<g>
			<path d="M193.8,144.5l0.2,0C194.1,144.5,193.9,144.5,193.8,144.5C193.9,144.5,193.8,144.5,193.8,144.5z"/>
		</g>
		<g>
			<path d="M345.3,82.6c1,0.5,0.9,1.3,0.9,2c0,4.8-0.4,9.5-3,13.8c0.4-1.7,0.8-3.5,1.1-5.3c0.3-1.7,0.4-3.4,0.6-5.1
				C344.9,86.2,344.7,84.4,345.3,82.6z"/>
		</g>
		<g>
			<path d="M336.2,106.7c-0.2-0.9,0-1.8,0.2-2.7c0.9-2.9,1.6-5.8,2-8.7c0.2-1.5,0.2-3.1,0.3-4.6c0-0.8-0.2-1.6,0.2-2.3
				c0.4-0.1,0.5,0.2,0.6,0.5c0.6,3.7,0.4,7.4-0.9,11c-0.6,1.7-1.3,3.4-1.9,5.1C336.5,105.5,336.1,106,336.2,106.7
				C336.2,106.7,336.2,106.7,336.2,106.7z"/>
		</g>
		<g>
			<path d="M323.6,115.1c-0.2,0.2-0.4,0.4-0.5,0.5c-0.2,0.2-0.3,0.2-0.4,0c0,0,0.1-0.2,0.1-0.2C323.1,115.4,323.4,115.3,323.6,115.1
				L323.6,115.1z"/>
		</g>
		<g>
			<path d="M318.6,119c-0.1,0.1-0.1,0.1-0.2,0.2C318.5,119.1,318.5,119.1,318.6,119L318.6,119z"/>
		</g>
		<g>
			<path d="M318.6,119l0-0.2C318.5,118.8,318.6,119,318.6,119C318.6,119,318.6,119,318.6,119z"/>
		</g>
		<g>
			<path d="M323.6,115.2c0-0.1,0-0.1,0-0.2C323.6,115.1,323.6,115.1,323.6,115.2C323.6,115.1,323.6,115.2,323.6,115.2z"/>
		</g>
		<g>
			<path d="M183.4,148.7c-0.1,0-0.1,0-0.2,0C183.4,148.8,183.4,148.8,183.4,148.7C183.3,148.6,183.4,148.7,183.4,148.7z"/>
		</g>
		<g>
			<path d="M163,105.6c0,0.4,0,0.8,0,1.2C162.5,106.4,162.8,106,163,105.6z"/>
		</g>
	</g>
</g>
</svg>
