<?xml version="1.0" encoding="UTF-8" standalone="no"?>
<!-- Created with Inkscape (http://www.inkscape.org/) -->

<svg
   xmlns:dc="http://purl.org/dc/elements/1.1/"
   xmlns:cc="http://creativecommons.org/ns#"
   xmlns:rdf="http://www.w3.org/1999/02/22-rdf-syntax-ns#"
   xmlns:svg="http://www.w3.org/2000/svg"
   xmlns="http://www.w3.org/2000/svg"
   xmlns:sodipodi="http://sodipodi.sourceforge.net/DTD/sodipodi-0.dtd"
   xmlns:inkscape="http://www.inkscape.org/namespaces/inkscape"
   width="379.77109"
   height="379.74243"
   viewBox="0 0 100.4811 100.47352"
   version="1.1"
   id="svg8"
   inkscape:version="0.92.2 (5c3e80d, 2017-08-06)"
   sodipodi:docname="logov2.svg">
  <defs
     id="defs2">
    <filter
       inkscape:menu="Shadows and Glows"
       inkscape:menu-tooltip="Cut out, add inner shadow and colorize some parts of an image"
       style="color-interpolation-filters:sRGB;"
       inkscape:label="Emergence"
       id="filter6323">
      <feColorMatrix
         values="0 0 0 0 0 0 0 0 0 0 0 0 0 0 0 0.21 0.72 0.07 0 0 "
         result="result1"
         id="feColorMatrix6295" />
      <feColorMatrix
         values="1 0 0 0 0 0 1 0 0 0 0 0 1 0 0 0 0 0 2 0 "
         result="result9"
         id="feColorMatrix6297" />
      <feComposite
         in2="result9"
         in="SourceGraphic"
         operator="in"
         result="result4"
         id="feComposite6299" />
      <feFlood
         result="result2"
         flood-color="rgb(0,0,0)"
         id="feFlood6301" />
      <feComposite
         in2="result9"
         operator="in"
         result="result10"
         id="feComposite6303" />
      <feComposite
         in2="result4"
         operator="atop"
         id="feComposite6305" />
      <feGaussianBlur
         stdDeviation="3"
         result="result8"
         id="feGaussianBlur6307" />
      <feOffset
         dx="3"
         dy="3"
         result="result3"
         in="result8"
         id="feOffset6309" />
      <feFlood
         flood-opacity="1"
         flood-color="rgb(219,173,62)"
         result="result5"
         id="feFlood6311" />
      <feMerge
         result="result6"
         id="feMerge6319">
        <feMergeNode
           in="result5"
           id="feMergeNode6313" />
        <feMergeNode
           in="result3"
           id="feMergeNode6315" />
        <feMergeNode
           in="result4"
           id="feMergeNode6317" />
      </feMerge>
      <feComposite
         in2="SourceGraphic"
         operator="in"
         result="result7"
         id="feComposite6321" />
    </filter>
  </defs>
  <sodipodi:namedview
     id="base"
     pagecolor="#ffffff"
     bordercolor="#666666"
     borderopacity="1.0"
     inkscape:pageopacity="0.0"
     inkscape:pageshadow="2"
     inkscape:zoom="0.98994949"
     inkscape:cx="-63.752764"
     inkscape:cy="252.27753"
     inkscape:document-units="mm"
     inkscape:current-layer="layer1"
     showgrid="false"
     inkscape:pagecheckerboard="true"
     fit-margin-top="0"
     fit-margin-left="0"
     fit-margin-right="0"
     fit-margin-bottom="0"
     inkscape:window-width="1366"
     inkscape:window-height="705"
     inkscape:window-x="-8"
     inkscape:window-y="-8"
     inkscape:window-maximized="1"
     units="px"
     scale-x="1" />
  <metadata
     id="metadata5">
    <rdf:RDF>
      <cc:Work
         rdf:about="">
        <dc:format>image/svg+xml</dc:format>
        <dc:type
           rdf:resource="http://purl.org/dc/dcmitype/StillImage" />
        <dc:title></dc:title>
      </cc:Work>
    </rdf:RDF>
  </metadata>
  <g
     inkscape:label="Layer 1"
     inkscape:groupmode="layer"
     id="layer1"
     transform="translate(-12.112614,-47.029718)">
    <g
       id="g6033"
       transform="translate(-2.1381561,-4.5435822)"
       style="filter:url(#filter6323)">
      <path
         style="fill:#fefefe;stroke-width:0.26458335"
         d="M 58.959793,151.77468 C 54.169211,151.2744 47.927362,149.51349 43.195506,147.32737 34.642803,143.37601 26.766249,136.27618 21.527404,127.79599 16.002855,118.85334 13.375342,107.25982 14.51078,96.836153 15.803355,84.969915 20.692987,74.694046 28.996254,66.394021 c 1.556198,-1.555591 3.798954,-3.565975 4.983902,-4.467519 18.141169,-13.802352 42.848473,-13.804452 61.043178,-0.0052 2.751703,2.086951 7.270146,6.602114 9.333606,9.326828 5.65088,7.461751 8.93658,15.570402 10.02362,24.736922 2.29697,19.369208 -6.79601,38.120258 -23.577174,48.619598 -9.1666,5.73519 -20.704995,8.33322 -31.843593,7.17002 z"
         id="path6039"
         inkscape:connector-curvature="0" />
      <path
         style="fill:#fec80e;stroke-width:0.26458335"
         d="M 58.959793,151.77468 C 54.169211,151.2744 47.927362,149.51349 43.195506,147.32737 34.642803,143.37601 26.766249,136.27618 21.527404,127.79599 16.002855,118.85334 13.375342,107.25982 14.51078,96.836153 15.803355,84.969915 20.692987,74.694046 28.996254,66.394021 c 1.556198,-1.555591 3.798954,-3.565975 4.983902,-4.467519 18.141169,-13.802352 42.848473,-13.804452 61.043178,-0.0052 2.751703,2.086951 7.270146,6.602114 9.333606,9.326828 5.65088,7.461751 8.93658,15.570402 10.02362,24.736922 2.29697,19.369208 -6.79601,38.120258 -23.577174,48.619598 -9.1666,5.73519 -20.704995,8.33322 -31.843593,7.17002 z m 9.841431,-17.14818 0.727604,-0.36017 V 124.23792 114.2095 l 8.171987,-16.189011 c 4.494591,-8.903957 8.245168,-16.507823 8.334613,-16.897481 0.18501,-0.805979 -0.303967,-1.448178 -1.291339,-1.695992 -0.342506,-0.08596 -2.512695,-0.115909 -4.822647,-0.06654 -3.368818,0.07199 -4.333129,0.177154 -4.873123,0.531428 -0.497149,0.326163 -1.609399,2.505827 -4.252907,8.334376 -1.968833,4.340985 -4.21573,9.529811 -4.993102,11.530722 -0.777373,2.000908 -1.477315,3.636168 -1.555422,3.633918 -0.07811,-0.002 -0.724117,-1.46077 -1.435574,-3.24114 -1.437007,-3.596025 -8.20521,-18.487921 -8.852937,-19.478876 -0.737721,-1.128641 -1.793716,-1.352965 -6.369018,-1.352965 -4.467524,0 -5.432303,0.19549 -5.747689,1.164632 -0.135181,0.415385 1.897975,4.685284 8.075356,16.959327 l 8.256018,16.404162 0.0555,10.1391 c 0.0538,9.82832 0.07171,10.14867 0.584663,10.45105 0.977288,0.57612 1.834239,0.67023 5.556249,0.61019 2.482768,-0.04 3.944083,-0.1785 4.431771,-0.4199 z"
         id="path6037"
         inkscape:connector-curvature="0" />
      <path
         style="fill:#ec1c23;stroke-width:0.26458335"
         d="m 61.855912,147.23552 c -7.063899,-4.03939 -14.522048,-9.99788 -19.894576,-15.89426 -5.415086,-5.94308 -9.052932,-11.21562 -12.253557,-17.75978 -3.128774,-6.39725 -4.893594,-11.78292 -5.841058,-17.825054 -0.665242,-4.242354 -0.41851,-11.416735 0.514636,-14.964398 2.018222,-7.672936 6.608685,-13.140055 12.835147,-15.286316 1.441753,-0.496972 2.293116,-0.602047 4.795658,-0.591882 3.595857,0.01461 5.943994,0.667472 9.069401,2.521614 2.537222,1.505204 6.594763,5.55448 8.484573,8.467291 1.574036,2.426101 3.997203,7.112346 4.298598,8.3132 0.174186,0.694015 0.208251,0.662869 0.761953,-0.69669 2.017201,-4.953048 4.713136,-9.11702 8.041264,-12.420035 2.87778,-2.856066 5.322239,-4.446806 8.428976,-5.485185 2.864895,-0.957546 7.292049,-1.006001 9.896308,-0.108313 3.338216,1.150683 6.379226,3.347334 8.4973,6.137961 10.043195,13.232212 5.534175,37.319107 -10.624333,56.754477 -4.411273,5.30585 -11.12969,11.37068 -17.220707,15.54541 -2.722613,1.86606 -7.084899,4.43183 -7.529523,4.42866 -0.151627,-0.001 -1.168654,-0.5126 -2.26006,-1.1367 z m 6.945312,-12.60902 0.727604,-0.36017 V 124.23792 114.2095 l 8.171987,-16.189011 c 4.494591,-8.903957 8.245168,-16.507823 8.334613,-16.897481 0.18501,-0.805979 -0.303967,-1.448178 -1.291339,-1.695992 -0.342506,-0.08596 -2.512695,-0.115909 -4.822647,-0.06654 -3.368818,0.07199 -4.333129,0.177154 -4.873123,0.531428 -0.497149,0.326163 -1.609399,2.505827 -4.252907,8.334376 -1.968833,4.340985 -4.21573,9.529811 -4.993102,11.530722 -0.777373,2.000908 -1.477315,3.636168 -1.555422,3.633918 -0.07811,-0.002 -0.724117,-1.46077 -1.435574,-3.24114 -1.437007,-3.596025 -8.20521,-18.487921 -8.852937,-19.478876 -0.737721,-1.128641 -1.793716,-1.352965 -6.369018,-1.352965 -4.467524,0 -5.432303,0.19549 -5.747689,1.164632 -0.135181,0.415385 1.897975,4.685284 8.075356,16.959327 l 8.256018,16.404162 0.0555,10.1391 c 0.0538,9.82832 0.07171,10.14867 0.584663,10.45105 0.977288,0.57612 1.834239,0.67023 5.556249,0.61019 2.482768,-0.04 3.944083,-0.1785 4.431771,-0.4199 z"
         id="path6035"
         inkscape:connector-curvature="0" />
    </g>
  </g>
</svg>
